Commissioner-BlackItalic2.ufo
<glyph name="numbersign" format="2">
  <advance width="1428"/>
  <unicode hex="0023"/>
  <outline>
    <contour>
      <point x="-40" y="216" type="line"/>
      <point x="110" y="216"/>
      <point x="262" y="216"/>
      <point x="376" y="216" type="curve"/>
      <point x="844" y="216" type="line"/>
      <point x="958" y="216"/>
      <point x="1110" y="216"/>
      <point x="1260" y="216" type="curve"/>
      <point x="1328" y="536" type="line"/>
      <point x="1178" y="536"/>
      <point x="1026" y="536"/>
      <point x="912" y="536" type="curve"/>
      <point x="444" y="536" type="line"/>
      <point x="330" y="536"/>
      <point x="178" y="536"/>
      <point x="28" y="536" type="curve"/>
    </contour>
    <contour>
      <point x="72" y="0" type="curve"/>
      <point x="408" y="0" type="line"/>
      <point x="460" y="138"/>
      <point x="508" y="268"/>
      <point x="572" y="438" type="curve"/>
      <point x="746" y="906" type="line"/>
      <point x="814" y="1090"/>
      <point x="854" y="1198"/>
      <point x="910" y="1346" type="curve"/>
      <point x="574" y="1346" type="line"/>
      <point x="516" y="1190"/>
      <point x="476" y="1084"/>
      <point x="410" y="906" type="curve"/>
      <point x="236" y="438" type="line"/>
      <point x="172" y="268"/>
      <point x="120" y="128"/>
    </contour>
    <contour>
      <point x="172" y="804" type="line"/>
      <point x="322" y="804"/>
      <point x="474" y="804"/>
      <point x="588" y="804" type="curve"/>
      <point x="1056" y="804" type="line"/>
      <point x="1170" y="804"/>
      <point x="1322" y="804"/>
      <point x="1472" y="804" type="curve"/>
      <point x="1540" y="1124" type="line"/>
      <point x="1390" y="1124"/>
      <point x="1238" y="1124"/>
      <point x="1124" y="1124" type="curve"/>
      <point x="656" y="1124" type="line"/>
      <point x="542" y="1124"/>
      <point x="390" y="1124"/>
      <point x="240" y="1124" type="curve"/>
    </contour>
    <contour>
      <point x="592" y="0" type="curve"/>
      <point x="928" y="0" type="line"/>
      <point x="980" y="138"/>
      <point x="1028" y="268"/>
      <point x="1092" y="438" type="curve"/>
      <point x="1266" y="906" type="line"/>
      <point x="1334" y="1090"/>
      <point x="1374" y="1198"/>
      <point x="1430" y="1346" type="curve"/>
      <point x="1094" y="1346" type="line"/>
      <point x="1036" y="1190"/>
      <point x="996" y="1084"/>
      <point x="930" y="906" type="curve"/>
      <point x="756" y="438" type="line"/>
      <point x="692" y="268"/>
      <point x="640" y="128"/>
    </contour>
  </outline>
</glyph>
<glyph name="dollar" format="2">
  <advance width="1176"/>
  <unicode hex="0024"/>
  <outline>
    <contour>
      <point x="524" y="-30" type="curve" smooth="yes"/>
      <point x="890" y="-30"/>
      <point x="1052" y="76"/>
      <point x="1110" y="358" type="curve" smooth="yes"/>
      <point x="1160" y="598"/>
      <point x="1080" y="724"/>
      <point x="796" y="826" type="curve" smooth="yes"/>
      <point x="616" y="890"/>
      <point x="556" y="930"/>
      <point x="566" y="972" type="curve" smooth="yes"/>
      <point x="574" y="1012"/>
      <point x="634" y="1030"/>
      <point x="720" y="1030" type="curve"/>
      <point x="832" y="1030"/>
      <point x="1006" y="990"/>
      <point x="1120" y="904" type="curve"/>
      <point x="1234" y="1274" type="line"/>
      <point x="1116" y="1346"/>
      <point x="892" y="1400"/>
      <point x="694" y="1400" type="curve" smooth="yes"/>
      <point x="366" y="1400"/>
      <point x="210" y="1280"/>
      <point x="156" y="1018" type="curve" smooth="yes"/>
      <point x="100" y="746"/>
      <point x="224" y="626"/>
      <point x="436" y="544" type="curve" smooth="yes"/>
      <point x="582" y="488"/>
      <point x="710" y="446"/>
      <point x="698" y="390" type="curve" smooth="yes"/>
      <point x="692" y="356"/>
      <point x="640" y="332"/>
      <point x="536" y="332" type="curve"/>
      <point x="370" y="332"/>
      <point x="216" y="386"/>
      <point x="94" y="470" type="curve"/>
      <point x="-16" y="84" type="line"/>
      <point x="82" y="20"/>
      <point x="322" y="-30"/>
    </contour>
    <contour>
      <point x="278" y="-274" type="curve"/>
      <point x="598" y="-274" type="line"/>
      <point x="656" y="-2"/>
      <point x="722" y="308"/>
      <point x="738" y="384" type="curve"/>
      <point x="858" y="948" type="line"/>
      <point x="874" y="1024"/>
      <point x="940" y="1332"/>
      <point x="998" y="1606" type="curve"/>
      <point x="678" y="1606" type="line"/>
      <point x="620" y="1332"/>
      <point x="554" y="1024"/>
      <point x="538" y="948" type="curve"/>
      <point x="418" y="384" type="line"/>
      <point x="402" y="308"/>
      <point x="336" y="0"/>
    </contour>
  </outline>
</glyph>
<glyph name="quotesingle" format="2">
  <advance width="504"/>
  <unicode hex="0027"/>
  <outline>
    <contour>
      <point x="124" y="718" type="curve"/>
      <point x="444" y="720" type="line"/>
      <point x="518" y="980"/>
      <point x="590" y="1232"/>
      <point x="664" y="1490" type="curve"/>
      <point x="244" y="1480" type="line"/>
      <point x="204" y="1230"/>
      <point x="166" y="974"/>
    </contour>
  </outline>
</glyph>
<glyph name="asterisk" format="2">
  <advance width="1026"/>
  <unicode hex="002A"/>
  <outline>
    <contour>
      <point x="880" y="614" type="curve"/>
      <point x="1062" y="816" type="line"/>
      <point x="934" y="908"/>
      <point x="804" y="996"/>
      <point x="676" y="1086" type="curve"/>
      <point x="572" y="1204"/>
      <point x="472" y="1324"/>
      <point x="368" y="1442" type="curve"/>
      <point x="186" y="1240" type="line"/>
      <point x="314" y="1150"/>
      <point x="444" y="1060"/>
      <point x="572" y="970" type="curve"/>
      <point x="676" y="852"/>
      <point x="776" y="732"/>
    </contour>
    <contour>
      <point x="222" y="754" type="line"/>
      <point x="364" y="820"/>
      <point x="506" y="888"/>
      <point x="648" y="954" type="curve"/>
      <point x="802" y="984"/>
      <point x="956" y="1012"/>
      <point x="1110" y="1044" type="curve"/>
      <point x="1026" y="1302" type="line"/>
      <point x="884" y="1236"/>
      <point x="742" y="1168"/>
      <point x="600" y="1104" type="curve"/>
      <point x="446" y="1072"/>
      <point x="290" y="1044"/>
      <point x="138" y="1014" type="curve"/>
    </contour>
    <contour>
      <point x="392" y="600" type="curve"/>
      <point x="660" y="542" type="line"/>
      <point x="674" y="698"/>
      <point x="688" y="856"/>
      <point x="702" y="1012" type="curve"/>
      <point x="754" y="1160"/>
      <point x="804" y="1310"/>
      <point x="856" y="1458" type="curve"/>
      <point x="588" y="1514" type="line"/>
      <point x="574" y="1358"/>
      <point x="560" y="1202"/>
      <point x="546" y="1044" type="curve"/>
      <point x="494" y="896"/>
      <point x="444" y="748"/>
    </contour>
  </outline>
</glyph>
<glyph name="comma" format="2">
  <advance width="544"/>
  <unicode hex="002C"/>
  <outline>
    <contour>
      <point x="-184" y="-314" type="curve"/>
      <point x="32" y="-310" type="line"/>
      <point x="174" y="-234"/>
      <point x="380" y="-70"/>
      <point x="424" y="156" type="curve" smooth="yes"/>
      <point x="452" y="294"/>
      <point x="414" y="406"/>
      <point x="266" y="440" type="curve"/>
      <point x="76" y="422" type="line"/>
      <point x="52" y="312"/>
      <point x="28" y="200"/>
      <point x="8" y="104" type="curve"/>
      <point x="-26" y="-62"/>
      <point x="-92" y="-198"/>
    </contour>
  </outline>
</glyph>
<glyph name="hyphen" format="2">
  <advance width="860"/>
  <unicode hex="002D"/>
  <outline>
    <contour>
      <point x="60" y="418" type="line"/>
      <point x="186" y="418"/>
      <point x="314" y="418"/>
      <point x="410" y="418" type="curve"/>
      <point x="506" y="418"/>
      <point x="634" y="418"/>
      <point x="760" y="418" type="curve"/>
      <point x="840" y="798" type="line"/>
      <point x="714" y="798"/>
      <point x="586" y="798"/>
      <point x="490" y="798" type="curve"/>
      <point x="394" y="798"/>
      <point x="266" y="798"/>
      <point x="140" y="798" type="curve"/>
    </contour>
  </outline>
</glyph>
<glyph name="less" format="2">
  <advance width="1180"/>
  <unicode hex="003C"/>
  <outline>
    <contour>
      <point x="1007" y="66" type="curve"/>
      <point x="1089" y="446" type="line"/>
      <point x="1003" y="476"/>
      <point x="911" y="508"/>
      <point x="825" y="538" type="curve"/>
      <point x="687" y="586" type="line"/>
      <point x="693" y="618" type="line"/>
      <point x="849" y="662" type="line"/>
      <point x="951" y="692"/>
      <point x="1055" y="722"/>
      <point x="1153" y="750" type="curve"/>
      <point x="1241" y="1170" type="line"/>
      <point x="1083" y="1118"/>
      <point x="927" y="1066"/>
      <point x="793" y="1022" type="curve"/>
      <point x="593" y="956" type="line"/>
      <point x="459" y="912"/>
      <point x="303" y="860"/>
      <point x="145" y="808" type="curve"/>
      <point x="63" y="428" type="line"/>
      <point x="199" y="376"/>
      <point x="333" y="324"/>
      <point x="449" y="280" type="curve"/>
      <point x="621" y="214" type="line"/>
      <point x="735" y="170"/>
      <point x="871" y="118"/>
    </contour>
  </outline>
</glyph>
<glyph name="equal" format="2">
  <advance width="1180"/>
  <unicode hex="003D"/>
  <outline>
    <contour>
      <point x="30" y="168" type="line"/>
      <point x="180" y="168"/>
      <point x="332" y="168"/>
      <point x="446" y="168" type="curve"/>
      <point x="594" y="168" type="line"/>
      <point x="708" y="168"/>
      <point x="860" y="168"/>
      <point x="1010" y="168" type="curve"/>
      <point x="1092" y="548" type="line"/>
      <point x="942" y="548"/>
      <point x="790" y="548"/>
      <point x="676" y="548" type="curve"/>
      <point x="528" y="548" type="line"/>
      <point x="414" y="548"/>
      <point x="262" y="548"/>
      <point x="112" y="548" type="curve"/>
    </contour>
    <contour>
      <point x="140" y="688" type="line"/>
      <point x="290" y="688"/>
      <point x="442" y="688"/>
      <point x="556" y="688" type="curve"/>
      <point x="704" y="688" type="line"/>
      <point x="818" y="688"/>
      <point x="970" y="688"/>
      <point x="1120" y="688" type="curve"/>
      <point x="1202" y="1068" type="line"/>
      <point x="1052" y="1068"/>
      <point x="900" y="1068"/>
      <point x="786" y="1068" type="curve"/>
      <point x="638" y="1068" type="line"/>
      <point x="524" y="1068"/>
      <point x="372" y="1068"/>
      <point x="222" y="1068" type="curve"/>
    </contour>
  </outline>
</glyph>
<glyph name="greater" format="2">
  <advance width="1180"/>
  <unicode hex="003E"/>
  <outline>
    <contour>
      <point x="-12" y="66" type="line"/>
      <point x="146" y="118"/>
      <point x="302" y="170"/>
      <point x="436" y="214" type="curve"/>
      <point x="636" y="280" type="line"/>
      <point x="770" y="324"/>
      <point x="926" y="376"/>
      <point x="1084" y="428" type="curve"/>
      <point x="1166" y="808" type="line"/>
      <point x="1030" y="860"/>
      <point x="896" y="912"/>
      <point x="780" y="956" type="curve"/>
      <point x="608" y="1022" type="line"/>
      <point x="494" y="1066"/>
      <point x="358" y="1118"/>
      <point x="222" y="1170" type="curve"/>
      <point x="140" y="790" type="line"/>
      <point x="226" y="760"/>
      <point x="318" y="728"/>
      <point x="404" y="698" type="curve"/>
      <point x="542" y="650" type="line"/>
      <point x="536" y="618" type="line"/>
      <point x="380" y="574" type="line"/>
      <point x="278" y="544"/>
      <point x="174" y="514"/>
      <point x="76" y="486" type="curve"/>
    </contour>
  </outline>
</glyph>
<glyph name="at" format="2">
  <advance width="1804"/>
  <unicode hex="0040"/>
  <outline>
    <contour>
      <point x="984" y="-314" type="curve" smooth="yes"/>
      <point x="1194" y="-314"/>
      <point x="1380" y="-270"/>
      <point x="1552" y="-170" type="curve"/>
      <point x="1552" y="102" type="line"/>
      <point x="1324" y="-40"/>
      <point x="1130" y="-74"/>
      <point x="984" y="-74" type="curve" smooth="yes"/>
      <point x="484" y="-74"/>
      <point x="254" y="238"/>
      <point x="352" y="676" type="curve" smooth="yes"/>
      <point x="416" y="964"/>
      <point x="608" y="1194"/>
      <point x="974" y="1194" type="curve"/>
      <point x="1354" y="1194"/>
      <point x="1580" y="966"/>
      <point x="1502" y="574" type="curve" smooth="yes"/>
      <point x="1476" y="442"/>
      <point x="1408" y="358"/>
      <point x="1336" y="358" type="curve"/>
      <point x="1270" y="358"/>
      <point x="1252" y="424"/>
      <point x="1288" y="594" type="curve"/>
      <point x="1304" y="668" type="line"/>
      <point x="1326" y="770"/>
      <point x="1352" y="886"/>
      <point x="1372" y="980" type="curve"/>
      <point x="1068" y="964" type="line"/>
      <point x="1034" y="864" type="line"/>
      <point x="1008" y="864" type="line"/>
      <point x="974" y="950"/>
      <point x="904" y="990"/>
      <point x="816" y="990" type="curve" smooth="yes"/>
      <point x="632" y="990"/>
      <point x="510" y="818"/>
      <point x="472" y="628" type="curve" smooth="yes"/>
      <point x="420" y="366"/>
      <point x="536" y="134"/>
      <point x="750" y="134" type="curve" smooth="yes"/>
      <point x="830" y="134"/>
      <point x="914" y="166"/>
      <point x="968" y="270" type="curve"/>
      <point x="992" y="270" type="line"/>
      <point x="1042" y="180"/>
      <point x="1170" y="118"/>
      <point x="1336" y="118" type="curve" smooth="yes"/>
      <point x="1486" y="118"/>
      <point x="1702" y="212"/>
      <point x="1762" y="522" type="curve" smooth="yes"/>
      <point x="1860" y="1030"/>
      <point x="1520" y="1434"/>
      <point x="978" y="1434" type="curve" smooth="yes"/>
      <point x="582" y="1434"/>
      <point x="202" y="1220"/>
      <point x="98" y="734" type="curve" smooth="yes"/>
      <point x="-24" y="166"/>
      <point x="312" y="-314"/>
    </contour>
    <contour>
      <point x="860" y="436" type="curve"/>
      <point x="812" y="436"/>
      <point x="796" y="508"/>
      <point x="808" y="564" type="curve" smooth="yes"/>
      <point x="822" y="632"/>
      <point x="860" y="682"/>
      <point x="910" y="682" type="curve"/>
      <point x="930" y="682"/>
      <point x="950" y="670"/>
      <point x="958" y="656" type="curve"/>
      <point x="920" y="478" type="line"/>
      <point x="908" y="454"/>
      <point x="886" y="436"/>
    </contour>
  </outline>
</glyph>
<glyph name="L" format="2">
  <advance width="1148"/>
  <unicode hex="004C"/>
  <anchor x="490" y="0" name="bottom"/>
  <anchor x="956" y="720" name="center"/>
  <anchor x="708" y="1426" name="top"/>
  <anchor x="758" y="1004" name="topright"/>
  <outline>
    <contour>
      <point x="-16" y="0" type="curve"/>
      <point x="478" y="0" type="line"/>
      <point x="496" y="80" type="line"/>
      <point x="526" y="228"/>
      <point x="554" y="356"/>
      <point x="592" y="538" type="curve"/>
      <point x="680" y="948" type="line"/>
      <point x="720" y="1138"/>
      <point x="748" y="1270"/>
      <point x="782" y="1426" type="curve"/>
      <point x="288" y="1426" type="line"/>
      <point x="254" y="1270"/>
      <point x="226" y="1138"/>
      <point x="186" y="948" type="curve"/>
      <point x="82" y="458" type="line"/>
      <point x="42" y="272"/>
      <point x="16" y="148"/>
    </contour>
    <contour>
      <point x="414" y="0" type="line"/>
      <point x="994" y="0" type="line"/>
      <point x="1084" y="424" type="line"/>
      <point x="960" y="424"/>
      <point x="854" y="424"/>
      <point x="672" y="424" type="curve"/>
      <point x="504" y="424" type="line"/>
    </contour>
  </outline>
</glyph>
<glyph name="O" format="2">
  <advance width="1622"/>
  <unicode hex="004F"/>
  <anchor x="706" y="0" name="bottom"/>
  <anchor x="856" y="714" name="center"/>
  <anchor x="1040" y="0" name="ogonek"/>
  <anchor x="1006" y="1426" name="top"/>
  <anchor x="242" y="1426" name="topleft"/>
  <anchor x="1586" y="1426" name="topright"/>
  <outline>
    <contour>
      <point x="800" y="-32" type="curve" smooth="yes"/>
      <point x="1246" y="-32"/>
      <point x="1518" y="238"/>
      <point x="1602" y="630" type="curve" smooth="yes"/>
      <point x="1698" y="1076"/>
      <point x="1454" y="1458"/>
      <point x="912" y="1458" type="curve" smooth="yes"/>
      <point x="466" y="1458"/>
      <point x="194" y="1206"/>
      <point x="110" y="806" type="curve" smooth="yes"/>
      <point x="18" y="370"/>
      <point x="238" y="-32"/>
    </contour>
    <contour>
      <point x="808" y="364" type="curve"/>
      <point x="646" y="364"/>
      <point x="564" y="544"/>
      <point x="608" y="746" type="curve" smooth="yes"/>
      <point x="648" y="932"/>
      <point x="756" y="1062"/>
      <point x="906" y="1062" type="curve"/>
      <point x="1078" y="1062"/>
      <point x="1142" y="874"/>
      <point x="1100" y="680" type="curve" smooth="yes"/>
      <point x="1058" y="482"/>
      <point x="950" y="364"/>
    </contour>
  </outline>
</glyph>
<glyph name="P" format="2">
  <advance width="1346"/>
  <unicode hex="0050"/>
  <outline>
    <contour>
      <point x="806" y="426" type="curve"/>
      <point x="1150" y="426"/>
      <point x="1324" y="578"/>
      <point x="1388" y="884" type="curve" smooth="yes"/>
      <point x="1470" y="1272"/>
      <point x="1290" y="1426"/>
      <point x="920" y="1426" type="curve"/>
      <point x="636" y="1426"/>
      <point x="404" y="1426"/>
      <point x="288" y="1426" type="curve"/>
      <point x="660" y="1056" type="line"/>
      <point x="812" y="1056" type="line" smooth="yes"/>
      <point x="878" y="1056"/>
      <point x="912" y="996"/>
      <point x="892" y="902" type="curve" smooth="yes"/>
      <point x="872" y="806"/>
      <point x="836" y="770"/>
      <point x="756" y="770" type="curve" smooth="yes"/>
      <point x="572" y="770" type="line"/>
      <point x="500" y="426" type="line"/>
      <point x="578" y="426"/>
      <point x="708" y="426"/>
    </contour>
    <contour>
      <point x="-16" y="0" type="curve"/>
      <point x="466" y="0" type="line"/>
      <point x="498" y="148"/>
      <point x="524" y="272"/>
      <point x="564" y="458" type="curve"/>
      <point x="650" y="868" type="line"/>
      <point x="690" y="1058"/>
      <point x="720" y="1192"/>
      <point x="752" y="1346" type="curve"/>
      <point x="288" y="1426" type="line"/>
      <point x="254" y="1270"/>
      <point x="226" y="1138"/>
      <point x="186" y="948" type="curve"/>
      <point x="82" y="458" type="line"/>
      <point x="42" y="272"/>
      <point x="16" y="148"/>
    </contour>
  </outline>
</glyph>
<glyph name="S" format="2">
  <advance width="1232"/>
  <unicode hex="0053"/>
  <anchor x="510" y="0" name="bottom"/>
  <anchor x="810" y="1426" name="top"/>
  <outline>
    <contour>
      <point x="554" y="-32" type="curve" smooth="yes"/>
      <point x="940" y="-32"/>
      <point x="1108" y="80"/>
      <point x="1170" y="376" type="curve" smooth="yes"/>
      <point x="1218" y="604"/>
      <point x="1132" y="732"/>
      <point x="836" y="850" type="curve" smooth="yes"/>
      <point x="708" y="902"/>
      <point x="662" y="952"/>
      <point x="672" y="1002" type="curve" smooth="yes"/>
      <point x="682" y="1050"/>
      <point x="730" y="1070"/>
      <point x="798" y="1070" type="curve"/>
      <point x="876" y="1070"/>
      <point x="1062" y="1028"/>
      <point x="1180" y="940" type="curve"/>
      <point x="1298" y="1328" type="line"/>
      <point x="1174" y="1402"/>
      <point x="938" y="1458"/>
      <point x="730" y="1458" type="curve" smooth="yes"/>
      <point x="378" y="1458"/>
      <point x="220" y="1326"/>
      <point x="166" y="1064" type="curve" smooth="yes"/>
      <point x="108" y="782"/>
      <point x="242" y="660"/>
      <point x="464" y="572" type="curve" smooth="yes"/>
      <point x="596" y="520"/>
      <point x="674" y="474"/>
      <point x="662" y="418" type="curve" smooth="yes"/>
      <point x="652" y="372"/>
      <point x="622" y="348"/>
      <point x="532" y="348" type="curve"/>
      <point x="394" y="348"/>
      <point x="228" y="404"/>
      <point x="100" y="492" type="curve"/>
      <point x="-14" y="88" type="line"/>
      <point x="86" y="22"/>
      <point x="338" y="-32"/>
    </contour>
  </outline>
</glyph>
<glyph name="U" format="2">
  <advance width="1452"/>
  <unicode hex="0055"/>
  <anchor x="622" y="0" name="bottom"/>
  <anchor x="924" y="0" name="ogonek"/>
  <anchor x="922" y="1426" name="top"/>
  <anchor x="1626" y="1426" name="topright"/>
  <outline>
    <contour>
      <point x="660" y="-32" type="curve" smooth="yes"/>
      <point x="1136" y="-32"/>
      <point x="1300" y="188"/>
      <point x="1370" y="508" type="curve" smooth="yes"/>
      <point x="1386" y="582"/>
      <point x="1428" y="782"/>
      <point x="1462" y="948" type="curve"/>
      <point x="1502" y="1138"/>
      <point x="1530" y="1272"/>
      <point x="1562" y="1426" type="curve"/>
      <point x="1072" y="1426" type="line"/>
      <point x="1040" y="1272"/>
      <point x="1010" y="1136"/>
      <point x="970" y="948" type="curve"/>
      <point x="892" y="576" type="line" smooth="yes"/>
      <point x="864" y="440"/>
      <point x="804" y="364"/>
      <point x="698" y="364" type="curve"/>
      <point x="600" y="364"/>
      <point x="566" y="460"/>
      <point x="598" y="606" type="curve" smooth="yes"/>
      <point x="670" y="948" type="line"/>
      <point x="710" y="1138"/>
      <point x="738" y="1270"/>
      <point x="772" y="1426" type="curve"/>
      <point x="282" y="1426" type="line"/>
      <point x="248" y="1270"/>
      <point x="220" y="1138"/>
      <point x="180" y="948" type="curve"/>
      <point x="152" y="822"/>
      <point x="124" y="692"/>
      <point x="110" y="626" type="curve" smooth="yes"/>
      <point x="30" y="252"/>
      <point x="184" y="-32"/>
    </contour>
  </outline>
</glyph>
<glyph name="Y" format="2">
  <advance width="1426"/>
  <unicode hex="0059"/>
  <anchor x="614" y="0" name="bottom"/>
  <anchor x="918" y="1426" name="top"/>
  <anchor x="232" y="1426" name="topleft"/>
  <outline>
    <contour>
      <point x="498" y="444" type="line"/>
      <point x="928" y="444" type="line"/>
      <point x="1334" y="1040" type="line"/>
      <point x="1418" y="1164"/>
      <point x="1508" y="1296"/>
      <point x="1596" y="1426" type="curve"/>
      <point x="1018" y="1426" type="line"/>
      <point x="960" y="1292"/>
      <point x="930" y="1226"/>
      <point x="882" y="1114" type="curve"/>
      <point x="810" y="948" type="line"/>
      <point x="780" y="948" type="line"/>
      <point x="768" y="1116" type="line"/>
      <point x="760" y="1224"/>
      <point x="756" y="1290"/>
      <point x="746" y="1426" type="curve"/>
      <point x="228" y="1426" type="line"/>
      <point x="270" y="1274"/>
      <point x="298" y="1170"/>
      <point x="334" y="1040" type="curve"/>
    </contour>
    <contour>
      <point x="364" y="0" type="curve"/>
      <point x="858" y="0" type="line"/>
      <point x="890" y="148"/>
      <point x="916" y="272"/>
      <point x="956" y="458" type="curve"/>
      <point x="1040" y="858" type="line"/>
      <point x="546" y="858" type="line"/>
      <point x="462" y="458" type="line"/>
      <point x="422" y="272"/>
      <point x="396" y="148"/>
    </contour>
  </outline>
</glyph>
<glyph name="underscore" format="2">
  <advance width="920"/>
  <unicode hex="005F"/>
  <outline>
    <contour>
      <point x="-214" y="-416" type="line"/>
      <point x="-64" y="-416"/>
      <point x="88" y="-416"/>
      <point x="202" y="-416" type="curve"/>
      <point x="330" y="-416" type="line"/>
      <point x="444" y="-416"/>
      <point x="596" y="-416"/>
      <point x="746" y="-416" type="curve"/>
      <point x="820" y="-60" type="line"/>
      <point x="670" y="-60"/>
      <point x="518" y="-60"/>
      <point x="404" y="-60" type="curve"/>
      <point x="276" y="-60" type="line"/>
      <point x="162" y="-60"/>
      <point x="10" y="-60"/>
      <point x="-140" y="-60" type="curve"/>
    </contour>
  </outline>
</glyph>
<glyph name="m" format="2">
  <advance width="1746"/>
  <unicode hex="006D"/>
  <anchor x="772" y="0" name="bottom"/>
  <anchor x="984" y="1004" name="top"/>
  <outline>
    <contour>
      <point x="-36" y="0" type="curve"/>
      <point x="408" y="0" type="line"/>
      <point x="438" y="138"/>
      <point x="462" y="258"/>
      <point x="492" y="400" type="curve"/>
      <point x="530" y="582" type="line"/>
      <point x="560" y="616"/>
      <point x="588" y="636"/>
      <point x="620" y="636" type="curve" smooth="yes"/>
      <point x="666" y="636"/>
      <point x="670" y="578"/>
      <point x="656" y="510" type="curve"/>
      <point x="634" y="400" type="line"/>
      <point x="604" y="258"/>
      <point x="580" y="138"/>
      <point x="550" y="0" type="curve"/>
      <point x="994" y="0" type="line"/>
      <point x="1024" y="138"/>
      <point x="1048" y="258"/>
      <point x="1084" y="426" type="curve"/>
      <point x="1100" y="504"/>
      <point x="1120" y="594"/>
      <point x="1132" y="652" type="curve" smooth="yes"/>
      <point x="1146" y="716"/>
      <point x="1148" y="774"/>
      <point x="1142" y="824" type="curve"/>
      <point x="1132" y="824" type="line"/>
      <point x="1118" y="960"/>
      <point x="1034" y="1036"/>
      <point x="890" y="1036" type="curve" smooth="yes"/>
      <point x="772" y="1036"/>
      <point x="648" y="982"/>
      <point x="568" y="862" type="curve"/>
      <point x="534" y="862" type="line"/>
      <point x="544" y="1024" type="line"/>
      <point x="176" y="1004" type="line"/>
      <point x="140" y="838"/>
      <point x="108" y="684"/>
      <point x="76" y="526" type="curve"/>
      <point x="54" y="426" type="line"/>
      <point x="18" y="258"/>
      <point x="-6" y="138"/>
    </contour>
    <contour>
      <point x="1136" y="0" type="curve"/>
      <point x="1580" y="0" type="line"/>
      <point x="1610" y="138"/>
      <point x="1634" y="258"/>
      <point x="1670" y="426" type="curve"/>
      <point x="1686" y="504"/>
      <point x="1706" y="594"/>
      <point x="1718" y="652" type="curve" smooth="yes"/>
      <point x="1766" y="880"/>
      <point x="1682" y="1036"/>
      <point x="1476" y="1036" type="curve" smooth="yes"/>
      <point x="1358" y="1036"/>
      <point x="1234" y="982"/>
      <point x="1154" y="862" type="curve"/>
      <point x="1108" y="862" type="line"/>
      <point x="1114" y="582" type="line"/>
      <point x="1144" y="616"/>
      <point x="1174" y="636"/>
      <point x="1206" y="636" type="curve" smooth="yes"/>
      <point x="1252" y="636"/>
      <point x="1256" y="578"/>
      <point x="1242" y="510" type="curve"/>
      <point x="1220" y="400" type="line"/>
      <point x="1190" y="258"/>
      <point x="1166" y="138"/>
    </contour>
  </outline>
</glyph>
<glyph name="n" format="2">
  <advance width="1168"/>
  <unicode hex="006E"/>
  <anchor x="482" y="0" name="bottom"/>
  <anchor x="694" y="1004" name="top"/>
  <outline>
    <contour>
      <point x="-36" y="0" type="curve"/>
      <point x="408" y="0" type="line"/>
      <point x="438" y="138"/>
      <point x="462" y="258"/>
      <point x="492" y="400" type="curve"/>
      <point x="530" y="582" type="line"/>
      <point x="560" y="616"/>
      <point x="588" y="636"/>
      <point x="624" y="636" type="curve" smooth="yes"/>
      <point x="674" y="636"/>
      <point x="678" y="578"/>
      <point x="664" y="510" type="curve"/>
      <point x="642" y="400" type="line"/>
      <point x="612" y="258"/>
      <point x="588" y="138"/>
      <point x="558" y="0" type="curve"/>
      <point x="1002" y="0" type="line"/>
      <point x="1032" y="138"/>
      <point x="1056" y="258"/>
      <point x="1092" y="426" type="curve"/>
      <point x="1108" y="504"/>
      <point x="1128" y="594"/>
      <point x="1140" y="652" type="curve" smooth="yes"/>
      <point x="1188" y="880"/>
      <point x="1104" y="1036"/>
      <point x="894" y="1036" type="curve" smooth="yes"/>
      <point x="772" y="1036"/>
      <point x="648" y="982"/>
      <point x="568" y="862" type="curve"/>
      <point x="534" y="862" type="line"/>
      <point x="544" y="1024" type="line"/>
      <point x="176" y="1004" type="line"/>
      <point x="140" y="838"/>
      <point x="108" y="684"/>
      <point x="76" y="526" type="curve"/>
      <point x="54" y="426" type="line"/>
      <point x="18" y="258"/>
      <point x="-6" y="138"/>
    </contour>
  </outline>
</glyph>
<glyph name="o" format="2">
  <advance width="1196"/>
  <unicode hex="006F"/>
  <anchor x="492" y="0" name="bottom"/>
  <anchor x="598" y="502" name="center"/>
  <anchor x="758" y="0" name="ogonek"/>
  <anchor x="704" y="1004" name="top"/>
  <anchor x="1142" y="1004" name="topright"/>
  <outline>
    <contour>
      <point x="558" y="-32" type="curve" smooth="yes"/>
      <point x="884" y="-32"/>
      <point x="1086" y="148"/>
      <point x="1150" y="448" type="curve" smooth="yes"/>
      <point x="1214" y="748"/>
      <point x="1038" y="1036"/>
      <point x="638" y="1036" type="curve" smooth="yes"/>
      <point x="310" y="1036"/>
      <point x="110" y="858"/>
      <point x="46" y="558" type="curve" smooth="yes"/>
      <point x="-16" y="258"/>
      <point x="144" y="-32"/>
    </contour>
    <contour>
      <point x="570" y="322" type="curve"/>
      <point x="498" y="322"/>
      <point x="470" y="414"/>
      <point x="492" y="518" type="curve" smooth="yes"/>
      <point x="512" y="616"/>
      <point x="562" y="682"/>
      <point x="632" y="682" type="curve"/>
      <point x="710" y="682"/>
      <point x="724" y="582"/>
      <point x="704" y="486" type="curve" smooth="yes"/>
      <point x="686" y="396"/>
      <point x="640" y="322"/>
    </contour>
  </outline>
</glyph>
<glyph name="q" format="2">
  <advance width="1176"/>
  <unicode hex="0071"/>
  <outline>
    <contour>
      <point x="484" y="-396" type="curve"/>
      <point x="928" y="-384" type="line"/>
      <point x="958" y="-246"/>
      <point x="982" y="-126"/>
      <point x="1018" y="42" type="curve"/>
      <point x="1122" y="526" type="line"/>
      <point x="1158" y="690"/>
      <point x="1192" y="852"/>
      <point x="1230" y="1024" type="curve"/>
      <point x="832" y="1004" type="line"/>
      <point x="792" y="880" type="line"/>
      <point x="760" y="880" type="line"/>
      <point x="716" y="986"/>
      <point x="604" y="1036"/>
      <point x="492" y="1036" type="curve" smooth="yes"/>
      <point x="260" y="1036"/>
      <point x="108" y="822"/>
      <point x="48" y="540" type="curve" smooth="yes"/>
      <point x="-16" y="236"/>
      <point x="68" y="-32"/>
      <point x="328" y="-32" type="curve" smooth="yes"/>
      <point x="414" y="-32"/>
      <point x="490" y="6"/>
      <point x="556" y="90" type="curve"/>
      <point x="584" y="90" type="line"/>
      <point x="570" y="16" type="line"/>
      <point x="540" y="-126"/>
      <point x="514" y="-258"/>
    </contour>
    <contour>
      <point x="566" y="338" type="curve"/>
      <point x="500" y="338"/>
      <point x="480" y="430"/>
      <point x="496" y="508" type="curve" smooth="yes"/>
      <point x="514" y="594"/>
      <point x="562" y="660"/>
      <point x="630" y="660" type="curve"/>
      <point x="660" y="660"/>
      <point x="686" y="644"/>
      <point x="698" y="624" type="curve"/>
      <point x="650" y="394" type="line"/>
      <point x="632" y="360"/>
      <point x="602" y="338"/>
    </contour>
  </outline>
</glyph>
<glyph name="r" format="2">
  <advance width="854"/>
  <unicode hex="0072"/>
  <anchor x="186" y="0" name="bottom"/>
  <anchor x="580" y="1004" name="top"/>
  <outline>
    <contour>
      <point x="-36" y="0" type="curve"/>
      <point x="408" y="0" type="line"/>
      <point x="438" y="138"/>
      <point x="462" y="258"/>
      <point x="492" y="400" type="curve"/>
      <point x="520" y="524" type="line"/>
      <point x="554" y="572"/>
      <point x="618" y="590"/>
      <point x="668" y="590" type="curve" smooth="yes"/>
      <point x="726" y="590"/>
      <point x="766" y="590"/>
      <point x="820" y="590" type="curve"/>
      <point x="946" y="1016" type="line"/>
      <point x="916" y="1028"/>
      <point x="872" y="1036"/>
      <point x="834" y="1036" type="curve" smooth="yes"/>
      <point x="750" y="1036"/>
      <point x="666" y="1010"/>
      <point x="568" y="862" type="curve"/>
      <point x="534" y="862" type="line"/>
      <point x="544" y="1024" type="line"/>
      <point x="176" y="1004" type="line"/>
      <point x="140" y="838"/>
      <point x="108" y="684"/>
      <point x="76" y="526" type="curve"/>
      <point x="54" y="426" type="line"/>
      <point x="18" y="258"/>
      <point x="-6" y="138"/>
    </contour>
  </outline>
</glyph>
<glyph name="braceleft" format="2">
  <advance width="980"/>
  <unicode hex="007B"/>
  <outline>
    <contour>
      <point x="550" y="-260" type="curve" smooth="yes"/>
      <point x="760" y="-260" type="line"/>
      <point x="832" y="86" type="line"/>
      <point x="764" y="86"/>
      <point x="710" y="86"/>
      <point x="676" y="86" type="curve"/>
      <point x="610" y="86"/>
      <point x="584" y="146"/>
      <point x="600" y="220" type="curve" smooth="yes"/>
      <point x="632" y="366" type="line" smooth="yes"/>
      <point x="666" y="520"/>
      <point x="620" y="588"/>
      <point x="478" y="638" type="curve"/>
      <point x="484" y="668" type="line"/>
      <point x="646" y="730"/>
      <point x="726" y="820"/>
      <point x="760" y="980" type="curve" smooth="yes"/>
      <point x="786" y="1106" type="line" smooth="yes"/>
      <point x="802" y="1180"/>
      <point x="848" y="1220"/>
      <point x="914" y="1220" type="curve"/>
      <point x="948" y="1220"/>
      <point x="1000" y="1220"/>
      <point x="1060" y="1220" type="curve"/>
      <point x="1134" y="1566" type="line"/>
      <point x="894" y="1566" type="line" smooth="yes"/>
      <point x="626" y="1566"/>
      <point x="460" y="1464"/>
      <point x="410" y="1224" type="curve" smooth="yes"/>
      <point x="408" y="1214"/>
      <point x="358" y="972"/>
      <point x="356" y="960" type="curve"/>
      <point x="336" y="860"/>
      <point x="278" y="806"/>
      <point x="196" y="806" type="curve" smooth="yes"/>
      <point x="104" y="806" type="line"/>
      <point x="40" y="500" type="line"/>
      <point x="132" y="500" type="line" smooth="yes"/>
      <point x="214" y="500"/>
      <point x="248" y="446"/>
      <point x="228" y="346" type="curve"/>
      <point x="226" y="334"/>
      <point x="188" y="166"/>
      <point x="186" y="154" type="curve"/>
      <point x="136" y="-86"/>
      <point x="282" y="-260"/>
    </contour>
  </outline>
</glyph>
<glyph name="cent" format="2">
  <advance width="948"/>
  <unicode hex="00A2"/>
  <anchor x="442" y="0" name="bottom"/>
  <anchor x="654" y="1004" name="top"/>
  <outline>
    <contour>
      <point x="268" y="-274" type="curve"/>
      <point x="568" y="-274" type="line"/>
      <point x="626" y="2"/>
      <point x="692" y="310"/>
      <point x="708" y="386" type="curve"/>
      <point x="752" y="596" type="line"/>
      <point x="768" y="672"/>
      <point x="834" y="982"/>
      <point x="892" y="1256" type="curve"/>
      <point x="592" y="1256" type="line"/>
      <point x="534" y="982"/>
      <point x="468" y="672"/>
      <point x="452" y="596" type="curve"/>
      <point x="408" y="386" type="line"/>
      <point x="392" y="310"/>
      <point x="326" y="2"/>
    </contour>
    <contour>
      <point x="580" y="-26" type="curve" smooth="yes"/>
      <point x="670" y="-26"/>
      <point x="748" y="-14"/>
      <point x="802" y="12" type="curve"/>
      <point x="864" y="388" type="line"/>
      <point x="804" y="350"/>
      <point x="742" y="332"/>
      <point x="672" y="332" type="curve"/>
      <point x="548" y="332"/>
      <point x="464" y="402"/>
      <point x="494" y="530" type="curve" smooth="yes"/>
      <point x="516" y="620"/>
      <point x="590" y="666"/>
      <point x="672" y="666" type="curve"/>
      <point x="720" y="666"/>
      <point x="802" y="656"/>
      <point x="900" y="588" type="curve"/>
      <point x="1006" y="964" type="line"/>
      <point x="896" y="1012"/>
      <point x="776" y="1034"/>
      <point x="652" y="1034" type="curve" smooth="yes"/>
      <point x="308" y="1034"/>
      <point x="108" y="850"/>
      <point x="48" y="568" type="curve" smooth="yes"/>
      <point x="-30" y="200"/>
      <point x="194" y="-26"/>
    </contour>
  </outline>
</glyph>
<glyph name="sterling" format="2">
  <advance width="1246"/>
  <unicode hex="00A3"/>
  <outline>
    <contour>
      <point x="-36" y="0" type="line"/>
      <point x="1080" y="0" type="line"/>
      <point x="1164" y="400" type="line"/>
      <point x="1020" y="400"/>
      <point x="816" y="400"/>
      <point x="644" y="400" type="curve"/>
      <point x="390" y="400" type="line"/>
      <point x="454" y="340" type="line"/>
      <point x="636" y="434"/>
      <point x="686" y="526"/>
      <point x="708" y="638" type="curve" smooth="yes"/>
      <point x="750" y="848" type="line" smooth="yes"/>
      <point x="774" y="964"/>
      <point x="846" y="1026"/>
      <point x="944" y="1026" type="curve"/>
      <point x="996" y="1026"/>
      <point x="1088" y="1012"/>
      <point x="1200" y="952" type="curve"/>
      <point x="1322" y="1346" type="line"/>
      <point x="1188" y="1392"/>
      <point x="1042" y="1412"/>
      <point x="890" y="1412" type="curve" smooth="yes"/>
      <point x="544" y="1412"/>
      <point x="360" y="1228"/>
      <point x="294" y="906" type="curve" smooth="yes"/>
      <point x="270" y="790"/>
      <point x="234" y="622"/>
      <point x="204" y="478" type="curve"/>
      <point x="186" y="392"/>
      <point x="140" y="304"/>
      <point x="12" y="228" type="curve"/>
    </contour>
    <contour>
      <point x="100" y="564" type="line"/>
      <point x="250" y="564"/>
      <point x="402" y="564"/>
      <point x="516" y="564" type="curve"/>
      <point x="604" y="564" type="line"/>
      <point x="718" y="564"/>
      <point x="870" y="564"/>
      <point x="1020" y="564" type="curve"/>
      <point x="1082" y="864" type="line"/>
      <point x="932" y="864"/>
      <point x="780" y="864"/>
      <point x="666" y="864" type="curve"/>
      <point x="578" y="864" type="line"/>
      <point x="464" y="864"/>
      <point x="312" y="864"/>
      <point x="162" y="864" type="curve"/>
    </contour>
  </outline>
</glyph>
<glyph name="brokenbar" format="2">
  <advance width="604"/>
  <unicode hex="00A6"/>
  <outline>
    <contour>
      <point x="156" y="712" type="line"/>
      <point x="536" y="712" type="line"/>
      <point x="576" y="894" type="line"/>
      <point x="592" y="970"/>
      <point x="658" y="1278"/>
      <point x="716" y="1552" type="curve"/>
      <point x="336" y="1552" type="line"/>
      <point x="278" y="1278"/>
      <point x="212" y="970"/>
      <point x="196" y="894" type="curve"/>
    </contour>
    <contour>
      <point x="-64" y="-328" type="curve"/>
      <point x="316" y="-328" type="line"/>
      <point x="374" y="-56"/>
      <point x="440" y="254"/>
      <point x="456" y="330" type="curve"/>
      <point x="494" y="512" type="line"/>
      <point x="114" y="512" type="line"/>
      <point x="76" y="330" type="line"/>
      <point x="60" y="254"/>
      <point x="-6" y="-54"/>
    </contour>
  </outline>
</glyph>
<glyph name="logicalnot" format="2">
  <advance width="1180"/>
  <unicode hex="00AC"/>
  <outline>
    <contour>
      <point x="620" y="88" type="curve"/>
      <point x="1012" y="88" type="line"/>
      <point x="1044" y="238"/>
      <point x="1076" y="388"/>
      <point x="1100" y="500" type="curve"/>
      <point x="1166" y="808" type="line"/>
      <point x="1016" y="808"/>
      <point x="864" y="808"/>
      <point x="750" y="808" type="curve"/>
      <point x="562" y="808" type="line"/>
      <point x="448" y="808"/>
      <point x="296" y="808"/>
      <point x="146" y="808" type="curve"/>
      <point x="64" y="428" type="line"/>
      <point x="214" y="428"/>
      <point x="366" y="428"/>
      <point x="480" y="428" type="curve"/>
      <point x="668" y="428" type="line"/>
      <point x="766" y="428"/>
      <point x="896" y="428"/>
      <point x="1024" y="428" type="curve"/>
      <point x="750" y="700" type="line"/>
      <point x="708" y="502" type="line"/>
      <point x="684" y="390"/>
      <point x="652" y="238"/>
    </contour>
  </outline>
</glyph>
<glyph name="degree" format="2">
  <advance width="1086"/>
  <unicode hex="00B0"/>
  <outline>
    <contour>
      <point x="620" y="562" type="curve" smooth="yes"/>
      <point x="886" y="562"/>
      <point x="1062" y="676"/>
      <point x="1118" y="938" type="curve" smooth="yes"/>
      <point x="1170" y="1188"/>
      <point x="988" y="1412"/>
      <point x="668" y="1412" type="curve" smooth="yes"/>
      <point x="396" y="1412"/>
      <point x="226" y="1286"/>
      <point x="178" y="1054" type="curve" smooth="yes"/>
      <point x="118" y="774"/>
      <point x="296" y="562"/>
    </contour>
    <contour>
      <point x="638" y="860" type="curve"/>
      <point x="554" y="860"/>
      <point x="508" y="922"/>
      <point x="524" y="1000" type="curve" smooth="yes"/>
      <point x="538" y="1066"/>
      <point x="580" y="1114"/>
      <point x="652" y="1114" type="curve"/>
      <point x="732" y="1114"/>
      <point x="774" y="1042"/>
      <point x="760" y="974" type="curve" smooth="yes"/>
      <point x="744" y="898"/>
      <point x="698" y="860"/>
    </contour>
  </outline>
</glyph>
<glyph name="micro" format="2">
  <advance width="1178"/>
  <unicode hex="00B5"/>
  <outline>
    <contour>
      <point x="-118" y="-396" type="curve"/>
      <point x="328" y="-384" type="line"/>
      <point x="358" y="-246"/>
      <point x="382" y="-126"/>
      <point x="412" y="16" type="curve"/>
      <point x="416" y="38" type="line"/>
      <point x="200" y="38" type="line"/>
      <point x="234" y="-6"/>
      <point x="286" y="-32"/>
      <point x="352" y="-32" type="curve" smooth="yes"/>
      <point x="448" y="-32"/>
      <point x="546" y="22"/>
      <point x="610" y="142" type="curve"/>
      <point x="644" y="142" type="line"/>
      <point x="634" y="0" type="line"/>
      <point x="1002" y="0" type="line"/>
      <point x="1032" y="142"/>
      <point x="1058" y="264"/>
      <point x="1082" y="378" type="curve"/>
      <point x="1118" y="550" type="line"/>
      <point x="1160" y="748"/>
      <point x="1184" y="864"/>
      <point x="1214" y="1004" type="curve"/>
      <point x="770" y="1004" type="line"/>
      <point x="740" y="864"/>
      <point x="716" y="746"/>
      <point x="686" y="604" type="curve"/>
      <point x="646" y="412" type="line"/>
      <point x="616" y="378"/>
      <point x="588" y="358"/>
      <point x="552" y="358" type="curve" smooth="yes"/>
      <point x="502" y="358"/>
      <point x="498" y="416"/>
      <point x="512" y="484" type="curve"/>
      <point x="536" y="604" type="line"/>
      <point x="566" y="746"/>
      <point x="594" y="880"/>
      <point x="622" y="1016" type="curve"/>
      <point x="176" y="1004" type="line"/>
      <point x="146" y="866"/>
      <point x="122" y="746"/>
      <point x="80" y="546" type="curve"/>
      <point x="-26" y="42" type="line"/>
      <point x="-62" y="-126"/>
      <point x="-88" y="-258"/>
    </contour>
  </outline>
</glyph>
<glyph name="AE" format="2">
  <advance width="2044"/>
  <unicode hex="00C6"/>
  <anchor x="1070" y="0" name="bottom"/>
  <anchor x="1370" y="1426" name="top"/>
  <outline>
    <contour>
      <point x="-86" y="0" type="curve"/>
      <point x="428" y="0" type="line"/>
      <point x="502" y="138"/>
      <point x="584" y="290"/>
      <point x="658" y="428" type="curve"/>
      <point x="988" y="1040" type="line"/>
      <point x="1052" y="1040" type="line"/>
      <point x="1364" y="1040" type="line"/>
      <point x="1500" y="1426" type="line"/>
      <point x="760" y="1426" type="line"/>
      <point x="676" y="1284"/>
      <point x="588" y="1136"/>
      <point x="492" y="974" type="curve"/>
      <point x="200" y="482" type="line"/>
      <point x="110" y="330"/>
      <point x="6" y="156"/>
    </contour>
    <contour>
      <point x="436" y="232" type="line"/>
      <point x="1082" y="232" type="line"/>
      <point x="1110" y="592" type="line"/>
      <point x="566" y="592" type="line"/>
    </contour>
    <contour>
      <point x="828" y="0" type="curve"/>
      <point x="1310" y="0" type="line"/>
      <point x="1328" y="80" type="line"/>
      <point x="1358" y="224"/>
      <point x="1386" y="356"/>
      <point x="1424" y="538" type="curve"/>
      <point x="1494" y="870" type="line"/>
      <point x="1534" y="1060"/>
      <point x="1562" y="1194"/>
      <point x="1594" y="1346" type="curve"/>
      <point x="1610" y="1426" type="line"/>
      <point x="1132" y="1426" type="line"/>
      <point x="1098" y="1266"/>
      <point x="1070" y="1136"/>
      <point x="1030" y="948" type="curve"/>
      <point x="926" y="458" type="line"/>
      <point x="886" y="272"/>
      <point x="860" y="148"/>
    </contour>
    <contour>
      <point x="1258" y="0" type="line"/>
      <point x="1858" y="0" type="line"/>
      <point x="1940" y="386" type="line"/>
      <point x="1832" y="386"/>
      <point x="1684" y="386"/>
      <point x="1554" y="386" type="curve"/>
      <point x="1340" y="386" type="line"/>
    </contour>
    <contour>
      <point x="1310" y="542" type="line"/>
      <point x="1554" y="542" type="line"/>
      <point x="1692" y="542"/>
      <point x="1834" y="542"/>
      <point x="1936" y="542" type="curve"/>
      <point x="2008" y="886" type="line"/>
      <point x="1916" y="886"/>
      <point x="1790" y="886"/>
      <point x="1626" y="886" type="curve"/>
      <point x="1382" y="886" type="line"/>
    </contour>
    <contour>
      <point x="1446" y="1040" type="line"/>
      <point x="1660" y="1040" type="line"/>
      <point x="1816" y="1040"/>
      <point x="1952" y="1040"/>
      <point x="2064" y="1040" type="curve"/>
      <point x="2144" y="1426" type="line"/>
      <point x="1526" y="1426" type="line"/>
    </contour>
  </outline>
</glyph>
<glyph name="multiply" format="2">
  <advance width="1196"/>
  <unicode hex="00D7"/>
  <outline>
    <contour>
      <point x="816" y="88" type="curve"/>
      <point x="1104" y="340" type="line"/>
      <point x="1014" y="448"/>
      <point x="924" y="558"/>
      <point x="858" y="636" type="curve"/>
      <point x="676" y="854" type="line"/>
      <point x="608" y="936"/>
      <point x="518" y="1044"/>
      <point x="430" y="1150" type="curve"/>
      <point x="142" y="896" type="line"/>
      <point x="232" y="788"/>
      <point x="320" y="684"/>
      <point x="386" y="604" type="curve"/>
      <point x="570" y="382" type="line"/>
      <point x="636" y="304"/>
      <point x="726" y="196"/>
    </contour>
    <contour>
      <point x="242" y="76" type="line"/>
      <point x="372" y="180"/>
      <point x="506" y="286"/>
      <point x="604" y="364" type="curve"/>
      <point x="872" y="576" type="line"/>
      <point x="970" y="654"/>
      <point x="1106" y="762"/>
      <point x="1234" y="864" type="curve"/>
      <point x="1004" y="1160" type="line"/>
      <point x="876" y="1058"/>
      <point x="740" y="950"/>
      <point x="642" y="872" type="curve"/>
      <point x="374" y="660" type="line"/>
      <point x="276" y="582"/>
      <point x="142" y="476"/>
      <point x="12" y="372" type="curve"/>
    </contour>
  </outline>
</glyph>
<glyph name="idotless" format="2">
  <advance width="604"/>
  <unicode hex="0131"/>
  <anchor x="196" y="0" name="bottom"/>
  <anchor x="418" y="0" name="ogonek"/>
  <anchor x="408" y="1004" name="top"/>
  <outline>
    <contour>
      <point x="-26" y="0" type="curve"/>
      <point x="418" y="0" type="line"/>
      <point x="448" y="138"/>
      <point x="472" y="258"/>
      <point x="508" y="426" type="curve"/>
      <point x="530" y="526" type="line"/>
      <point x="576" y="746"/>
      <point x="602" y="866"/>
      <point x="630" y="1004" type="curve"/>
      <point x="186" y="1004" type="line"/>
      <point x="158" y="866"/>
      <point x="132" y="746"/>
      <point x="86" y="526" type="curve"/>
      <point x="64" y="426" type="line"/>
      <point x="28" y="258"/>
      <point x="4" y="138"/>
    </contour>
  </outline>
</glyph>
<glyph name="kgreenlandic" format="2">
  <advance width="1218"/>
  <unicode hex="0138"/>
  <outline>
    <contour>
      <point x="606" y="0" type="curve"/>
      <point x="1112" y="0" type="line"/>
      <point x="1056" y="126"/>
      <point x="1002" y="254"/>
      <point x="946" y="380" type="curve"/>
      <point x="832" y="642" type="line"/>
      <point x="898" y="452" type="line"/>
      <point x="1034" y="634" type="line"/>
      <point x="1128" y="758"/>
      <point x="1218" y="880"/>
      <point x="1312" y="1004" type="curve"/>
      <point x="784" y="1004" type="line"/>
      <point x="740" y="924"/>
      <point x="698" y="846"/>
      <point x="656" y="766" type="curve"/>
      <point x="586" y="636" type="line"/>
      <point x="510" y="636" type="line"/>
      <point x="450" y="352" type="line"/>
      <point x="530" y="352" type="line"/>
      <point x="560" y="216" type="line"/>
      <point x="574" y="144"/>
      <point x="592" y="72"/>
    </contour>
    <contour>
      <point x="-36" y="0" type="curve"/>
      <point x="408" y="0" type="line"/>
      <point x="432" y="114"/>
      <point x="454" y="214"/>
      <point x="478" y="332" type="curve"/>
      <point x="536" y="604" type="line"/>
      <point x="566" y="746"/>
      <point x="592" y="878"/>
      <point x="622" y="1016" type="curve"/>
      <point x="176" y="1004" type="line"/>
      <point x="146" y="866"/>
      <point x="122" y="746"/>
      <point x="80" y="546" type="curve"/>
      <point x="54" y="426" type="line"/>
      <point x="18" y="258"/>
      <point x="-6" y="138"/>
    </contour>
  </outline>
</glyph>
<glyph name="Lslash" format="2">
  <advance width="1208"/>
  <unicode hex="0141"/>
  <outline>
    <contour>
      <point x="44" y="0" type="curve"/>
      <point x="538" y="0" type="line"/>
      <point x="556" y="80" type="line"/>
      <point x="586" y="228"/>
      <point x="614" y="356"/>
      <point x="652" y="538" type="curve"/>
      <point x="740" y="948" type="line"/>
      <point x="780" y="1138"/>
      <point x="808" y="1270"/>
      <point x="842" y="1426" type="curve"/>
      <point x="348" y="1426" type="line"/>
      <point x="314" y="1270"/>
      <point x="286" y="1138"/>
      <point x="246" y="948" type="curve"/>
      <point x="142" y="458" type="line"/>
      <point x="102" y="272"/>
      <point x="76" y="148"/>
    </contour>
    <contour>
      <point x="42" y="448" type="line"/>
      <point x="198" y="490"/>
      <point x="348" y="530"/>
      <point x="474" y="564" type="curve"/>
      <point x="588" y="594" type="line"/>
      <point x="714" y="628"/>
      <point x="864" y="668"/>
      <point x="1020" y="710" type="curve"/>
      <point x="994" y="1038" type="line"/>
      <point x="840" y="996"/>
      <point x="692" y="956"/>
      <point x="564" y="922" type="curve"/>
      <point x="446" y="890" type="line"/>
      <point x="318" y="856"/>
      <point x="174" y="816"/>
      <point x="16" y="774" type="curve"/>
    </contour>
    <contour>
      <point x="474" y="0" type="line"/>
      <point x="1054" y="0" type="line"/>
      <point x="1144" y="424" type="line"/>
      <point x="1020" y="424"/>
      <point x="914" y="424"/>
      <point x="732" y="424" type="curve"/>
      <point x="564" y="424" type="line"/>
    </contour>
  </outline>
</glyph>
<glyph name="lslash" format="2">
  <advance width="824"/>
  <unicode hex="0142"/>
  <outline>
    <contour>
      <point x="44" y="460" type="line"/>
      <point x="180" y="498"/>
      <point x="300" y="532"/>
      <point x="416" y="564" type="curve"/>
      <point x="518" y="592" type="line"/>
      <point x="632" y="624"/>
      <point x="762" y="660"/>
      <point x="898" y="698" type="curve"/>
      <point x="872" y="984" type="line"/>
      <point x="738" y="946"/>
      <point x="608" y="910"/>
      <point x="494" y="878" type="curve"/>
      <point x="392" y="850" type="line"/>
      <point x="274" y="818"/>
      <point x="152" y="784"/>
      <point x="18" y="746" type="curve"/>
    </contour>
    <contour>
      <point x="84" y="0" type="curve"/>
      <point x="528" y="0" type="line"/>
      <point x="558" y="138"/>
      <point x="582" y="258"/>
      <point x="618" y="426" type="curve"/>
      <point x="736" y="986" type="line"/>
      <point x="776" y="1178"/>
      <point x="812" y="1346"/>
      <point x="844" y="1500" type="curve"/>
      <point x="394" y="1468" type="line"/>
      <point x="358" y="1298"/>
      <point x="326" y="1144"/>
      <point x="292" y="986" type="curve"/>
      <point x="174" y="426" type="line"/>
      <point x="138" y="258"/>
      <point x="114" y="138"/>
    </contour>
  </outline>
</glyph>
<glyph name="Schwa" format="2">
  <advance width="1546"/>
  <unicode hex="018F"/>
  <outline>
    <contour>
      <point x="734" y="-32" type="curve" smooth="yes"/>
      <point x="1174" y="-32"/>
      <point x="1448" y="250"/>
      <point x="1524" y="622" type="curve" smooth="yes"/>
      <point x="1620" y="1088"/>
      <point x="1388" y="1458"/>
      <point x="854" y="1458" type="curve" smooth="yes"/>
      <point x="666" y="1458"/>
      <point x="450" y="1412"/>
      <point x="322" y="1354" type="curve"/>
      <point x="280" y="926" type="line"/>
      <point x="430" y="1008"/>
      <point x="618" y="1062"/>
      <point x="770" y="1062" type="curve"/>
      <point x="1008" y="1062"/>
      <point x="1062" y="934"/>
      <point x="1066" y="820" type="curve"/>
      <point x="1044" y="672" type="line"/>
      <point x="1000" y="454"/>
      <point x="894" y="364"/>
      <point x="738" y="364" type="curve"/>
      <point x="572" y="364"/>
      <point x="488" y="470"/>
      <point x="534" y="614" type="curve"/>
      <point x="476" y="544" type="line"/>
      <point x="1098" y="544" type="line"/>
      <point x="1166" y="868" type="line"/>
      <point x="138" y="868" type="line"/>
      <point x="90" y="696" type="line"/>
      <point x="18" y="330"/>
      <point x="170" y="-32"/>
    </contour>
  </outline>
</glyph>
<glyph name="circumflexcomb" format="2">
  <unicode hex="0302"/>
  <anchor x="706" y="1004" name="_top"/>
  <anchor x="812" y="1510" name="top"/>
  <outline>
    <contour>
      <point x="872" y="1106" type="curve"/>
      <point x="1172" y="1110" type="line"/>
      <point x="1126" y="1256"/>
      <point x="1076" y="1402"/>
      <point x="1028" y="1548" type="curve"/>
      <point x="594" y="1548" type="line"/>
      <point x="690" y="1394"/>
      <point x="786" y="1246"/>
    </contour>
    <contour>
      <point x="284" y="1108" type="curve"/>
      <point x="600" y="1108" type="line"/>
      <point x="728" y="1246"/>
      <point x="870" y="1396"/>
      <point x="1012" y="1548" type="curve"/>
      <point x="584" y="1548" type="line"/>
      <point x="484" y="1400"/>
      <point x="386" y="1256"/>
    </contour>
  </outline>
</glyph>
<glyph name="dblgravecomb" format="2">
  <unicode hex="030F"/>
  <anchor x="706" y="1004" name="_top"/>
  <anchor x="816" y="1534" name="top"/>
  <outline>
    <contour>
      <point x="396" y="1106" type="curve"/>
      <point x="676" y="1110" type="line"/>
      <point x="646" y="1258"/>
      <point x="610" y="1404"/>
      <point x="578" y="1552" type="curve"/>
      <point x="164" y="1542" type="line"/>
      <point x="244" y="1390"/>
      <point x="324" y="1244"/>
    </contour>
    <contour>
      <point x="862" y="1106" type="curve"/>
      <point x="1134" y="1110" type="line"/>
      <point x="1120" y="1258"/>
      <point x="1100" y="1404"/>
      <point x="1086" y="1552" type="curve"/>
      <point x="682" y="1542" type="line"/>
      <point x="744" y="1390"/>
      <point x="806" y="1244"/>
    </contour>
  </outline>
</glyph>
<glyph name="horncomb" format="2">
  <unicode hex="031B"/>
  <anchor x="706" y="1004" name="_topright"/>
  <outline>
    <contour>
      <point x="468" y="612" type="line"/>
      <point x="854" y="612"/>
      <point x="1038" y="740"/>
      <point x="1082" y="964" type="curve" smooth="yes"/>
      <point x="1106" y="1088"/>
      <point x="1092" y="1192"/>
      <point x="1082" y="1236" type="curve"/>
      <point x="774" y="1220" type="line"/>
      <point x="772" y="1152"/>
      <point x="770" y="1088"/>
      <point x="752" y="996" type="curve"/>
      <point x="732" y="880"/>
      <point x="682" y="824"/>
      <point x="478" y="824" type="curve"/>
    </contour>
  </outline>
</glyph>
<glyph name="dotbelowcomb" format="2">
  <unicode hex="0323"/>
  <anchor x="494" y="0" name="_bottom"/>
  <anchor x="494" y="0" name="bottom"/>
  <outline>
    <contour>
      <point x="392" y="-502" type="curve" smooth="yes"/>
      <point x="544" y="-502"/>
      <point x="650" y="-466"/>
      <point x="682" y="-312" type="curve" smooth="yes"/>
      <point x="708" y="-184"/>
      <point x="630" y="-72"/>
      <point x="480" y="-72" type="curve" smooth="yes"/>
      <point x="326" y="-72"/>
      <point x="218" y="-130"/>
      <point x="190" y="-264" type="curve" smooth="yes"/>
      <point x="158" y="-420"/>
      <point x="240" y="-502"/>
    </contour>
  </outline>
</glyph>
<glyph name="dieresisbelowcomb" format="2">
  <unicode hex="0324"/>
  <anchor x="494" y="0" name="_bottom"/>
  <outline>
    <contour>
      <point x="652" y="-482" type="curve" smooth="yes"/>
      <point x="766" y="-482"/>
      <point x="854" y="-448"/>
      <point x="884" y="-302" type="curve" smooth="yes"/>
      <point x="910" y="-178"/>
      <point x="840" y="-72"/>
      <point x="708" y="-72" type="curve" smooth="yes"/>
      <point x="586" y="-72"/>
      <point x="498" y="-128"/>
      <point x="472" y="-258" type="curve" smooth="yes"/>
      <point x="444" y="-400"/>
      <point x="528" y="-482"/>
    </contour>
    <contour>
      <point x="164" y="-482" type="curve" smooth="yes"/>
      <point x="278" y="-482"/>
      <point x="366" y="-448"/>
      <point x="396" y="-302" type="curve" smooth="yes"/>
      <point x="422" y="-178"/>
      <point x="352" y="-72"/>
      <point x="220" y="-72" type="curve" smooth="yes"/>
      <point x="98" y="-72"/>
      <point x="10" y="-128"/>
      <point x="-16" y="-258" type="curve" smooth="yes"/>
      <point x="-44" y="-400"/>
      <point x="40" y="-482"/>
    </contour>
  </outline>
</glyph>
<glyph name="commaaccentcomb" format="2">
  <unicode hex="0326"/>
  <anchor x="494" y="0" name="_bottom"/>
  <anchor x="372" y="-586" name="bottom"/>
  <outline>
    <contour>
      <point x="148" y="-586" type="curve"/>
      <point x="328" y="-580" type="line"/>
      <point x="512" y="-518"/>
      <point x="636" y="-414"/>
      <point x="666" y="-266" type="curve" smooth="yes"/>
      <point x="686" y="-164"/>
      <point x="628" y="-88"/>
      <point x="492" y="-72" type="curve"/>
      <point x="298" y="-90" type="line"/>
      <point x="282" y="-164"/>
      <point x="266" y="-238"/>
      <point x="250" y="-312" type="curve"/>
      <point x="232" y="-406"/>
      <point x="204" y="-498"/>
    </contour>
  </outline>
</glyph>
<glyph name="ogonekcomb" format="2">
  <unicode hex="0328"/>
  <anchor x="494" y="0" name="_ogonek"/>
  <outline>
    <contour>
      <point x="276" y="-456" type="curve" smooth="yes"/>
      <point x="338" y="-456"/>
      <point x="378" y="-448"/>
      <point x="410" y="-436" type="curve"/>
      <point x="462" y="-186" type="line"/>
      <point x="448" y="-192"/>
      <point x="422" y="-198"/>
      <point x="392" y="-198" type="curve"/>
      <point x="332" y="-198"/>
      <point x="300" y="-172"/>
      <point x="308" y="-128" type="curve" smooth="yes"/>
      <point x="318" y="-72"/>
      <point x="388" y="-32"/>
      <point x="494" y="0" type="curve"/>
      <point x="422" y="82" type="line"/>
      <point x="194" y="54" type="line"/>
      <point x="176" y="-30" type="line"/>
      <point x="96" y="-54"/>
      <point x="-2" y="-100"/>
      <point x="-24" y="-216" type="curve" smooth="yes"/>
      <point x="-48" y="-338"/>
      <point x="36" y="-456"/>
    </contour>
  </outline>
</glyph>
<glyph name="slashshortcomb" format="2">
  <unicode hex="0337"/>
  <anchor x="598" y="502" name="_center"/>
  <outline>
    <contour>
      <point x="152" y="-164" type="line"/>
      <point x="264" y="-36"/>
      <point x="368" y="84"/>
      <point x="490" y="224" type="curve"/>
      <point x="830" y="616" type="line"/>
      <point x="954" y="760"/>
      <point x="1054" y="874"/>
      <point x="1170" y="1008" type="curve"/>
      <point x="1012" y="1136" type="line"/>
      <point x="898" y="1004"/>
      <point x="796" y="888"/>
      <point x="672" y="744" type="curve"/>
      <point x="340" y="362" type="line"/>
      <point x="218" y="222"/>
      <point x="124" y="114"/>
      <point x="2" y="-26" type="curve"/>
    </contour>
  </outline>
</glyph>
<glyph name="slashlongcomb" format="2">
  <unicode hex="0338"/>
  <anchor x="614" y="714" name="_center"/>
  <outline>
    <contour>
      <point x="28" y="-178" type="line"/>
      <point x="178" y="-6"/>
      <point x="314" y="152"/>
      <point x="480" y="342" type="curve"/>
      <point x="934" y="864" type="line"/>
      <point x="1098" y="1054"/>
      <point x="1234" y="1210"/>
      <point x="1388" y="1388" type="curve"/>
      <point x="1172" y="1558" type="line"/>
      <point x="1020" y="1382"/>
      <point x="884" y="1226"/>
      <point x="716" y="1032" type="curve"/>
      <point x="272" y="522" type="line"/>
      <point x="108" y="334"/>
      <point x="-18" y="188"/>
      <point x="-178" y="4" type="curve"/>
    </contour>
  </outline>
</glyph>
<glyph name="pi" format="2">
  <advance width="1296"/>
  <unicode hex="03C0"/>
  <outline>
    <contour>
      <point x="618" y="0" type="curve"/>
      <point x="1048" y="0" type="line"/>
      <point x="1074" y="124"/>
      <point x="1104" y="264"/>
      <point x="1126" y="370" type="curve"/>
      <point x="1260" y="1004" type="line"/>
      <point x="830" y="1004" type="line"/>
      <point x="768" y="710"/>
      <point x="728" y="522"/>
      <point x="688" y="332" type="curve"/>
      <point x="662" y="208"/>
      <point x="636" y="86"/>
    </contour>
    <contour>
      <point x="46" y="0" type="curve"/>
      <point x="476" y="0" type="line"/>
      <point x="504" y="134"/>
      <point x="530" y="258"/>
      <point x="560" y="398" type="curve"/>
      <point x="588" y="530" type="line"/>
      <point x="620" y="682"/>
      <point x="654" y="842"/>
      <point x="688" y="1004" type="curve"/>
      <point x="258" y="1004" type="line"/>
      <point x="228" y="862"/>
      <point x="204" y="750"/>
      <point x="156" y="522" type="curve"/>
      <point x="136" y="426" type="line"/>
      <point x="100" y="256"/>
      <point x="74" y="132"/>
    </contour>
    <contour>
      <point x="62" y="678" type="line"/>
      <point x="328" y="678" type="line"/>
      <point x="954" y="678" type="line"/>
      <point x="1060" y="678"/>
      <point x="1178" y="678"/>
      <point x="1294" y="678" type="curve"/>
      <point x="1362" y="1004" type="line"/>
      <point x="130" y="1004" type="line"/>
    </contour>
  </outline>
</glyph>
<glyph name="Germandbls" format="2">
  <advance width="1482"/>
  <unicode hex="1E9E"/>
  <outline>
    <contour>
      <point x="788" y="-12" type="curve" smooth="yes"/>
      <point x="1214" y="-12"/>
      <point x="1360" y="138"/>
      <point x="1406" y="358" type="curve" smooth="yes"/>
      <point x="1468" y="646"/>
      <point x="1298" y="820"/>
      <point x="1014" y="876" type="curve"/>
      <point x="976" y="694" type="line"/>
      <point x="1180" y="804" type="line"/>
      <point x="1256" y="846"/>
      <point x="1334" y="888"/>
      <point x="1410" y="930" type="curve"/>
      <point x="1524" y="1306" type="line"/>
      <point x="1412" y="1376"/>
      <point x="1102" y="1458"/>
      <point x="864" y="1458" type="curve" smooth="yes"/>
      <point x="416" y="1458"/>
      <point x="246" y="1252"/>
      <point x="168" y="898" type="curve" smooth="yes"/>
      <point x="138" y="760"/>
      <point x="106" y="598"/>
      <point x="76" y="458" type="curve"/>
      <point x="36" y="272"/>
      <point x="10" y="148"/>
      <point x="-22" y="0" type="curve"/>
      <point x="468" y="0" type="line"/>
      <point x="500" y="148"/>
      <point x="526" y="272"/>
      <point x="566" y="458" type="curve"/>
      <point x="650" y="856" type="line" smooth="yes"/>
      <point x="680" y="1002"/>
      <point x="752" y="1062"/>
      <point x="872" y="1062" type="curve"/>
      <point x="984" y="1062"/>
      <point x="1072" y="1022"/>
      <point x="1132" y="974" type="curve"/>
      <point x="1150" y="1100" type="line"/>
      <point x="974" y="976" type="line"/>
      <point x="912" y="934"/>
      <point x="854" y="890"/>
      <point x="792" y="848" type="curve"/>
      <point x="738" y="588" type="line"/>
      <point x="864" y="568"/>
      <point x="920" y="518"/>
      <point x="906" y="452" type="curve" smooth="yes"/>
      <point x="894" y="396"/>
      <point x="854" y="358"/>
      <point x="730" y="358" type="curve"/>
      <point x="702" y="358"/>
      <point x="664" y="362"/>
      <point x="648" y="364" type="curve"/>
      <point x="572" y="0" type="line"/>
      <point x="606" y="-6"/>
      <point x="756" y="-12"/>
    </contour>
  </outline>
</glyph>
<glyph name="emdash" format="2">
  <advance width="1620"/>
  <unicode hex="2014"/>
  <outline>
    <contour>
      <point x="62" y="418" type="line"/>
      <point x="258" y="418"/>
      <point x="456" y="418"/>
      <point x="604" y="418" type="curve"/>
      <point x="980" y="418" type="line"/>
      <point x="1128" y="418"/>
      <point x="1326" y="418"/>
      <point x="1522" y="418" type="curve"/>
      <point x="1602" y="798" type="line"/>
      <point x="1406" y="798"/>
      <point x="1208" y="798"/>
      <point x="1060" y="798" type="curve"/>
      <point x="684" y="798" type="line"/>
      <point x="536" y="798"/>
      <point x="338" y="798"/>
      <point x="142" y="798" type="curve"/>
    </contour>
  </outline>
</glyph>
<glyph name="daggerdbl" format="2">
  <advance width="1220"/>
  <unicode hex="2021"/>
  <outline>
    <contour>
      <point x="294" y="0" type="curve"/>
      <point x="714" y="0" type="line"/>
      <point x="746" y="152"/>
      <point x="774" y="286"/>
      <point x="812" y="466" type="curve"/>
      <point x="904" y="898" type="line"/>
      <point x="938" y="1058"/>
      <point x="972" y="1220"/>
      <point x="1006" y="1380" type="curve"/>
      <point x="586" y="1380" type="line"/>
      <point x="552" y="1220"/>
      <point x="518" y="1058"/>
      <point x="484" y="898" type="curve"/>
      <point x="392" y="466" type="line"/>
      <point x="354" y="286"/>
      <point x="326" y="152"/>
    </contour>
    <contour>
      <point x="140" y="788" type="line"/>
      <point x="290" y="788"/>
      <point x="442" y="788"/>
      <point x="556" y="788" type="curve"/>
      <point x="784" y="788" type="line"/>
      <point x="898" y="788"/>
      <point x="1050" y="788"/>
      <point x="1200" y="788" type="curve"/>
      <point x="1274" y="1128" type="line"/>
      <point x="1124" y="1128"/>
      <point x="972" y="1128"/>
      <point x="858" y="1128" type="curve"/>
      <point x="630" y="1128" type="line"/>
      <point x="516" y="1128"/>
      <point x="364" y="1128"/>
      <point x="214" y="1128" type="curve"/>
    </contour>
    <contour>
      <point x="34" y="288" type="line"/>
      <point x="184" y="288"/>
      <point x="336" y="288"/>
      <point x="450" y="288" type="curve"/>
      <point x="678" y="288" type="line"/>
      <point x="792" y="288"/>
      <point x="944" y="288"/>
      <point x="1094" y="288" type="curve"/>
      <point x="1166" y="628" type="line"/>
      <point x="1016" y="628"/>
      <point x="864" y="628"/>
      <point x="750" y="628" type="curve"/>
      <point x="522" y="628" type="line"/>
      <point x="408" y="628"/>
      <point x="256" y="628"/>
      <point x="106" y="628" type="curve"/>
    </contour>
  </outline>
</glyph>
<glyph name="franc" format="2">
  <advance width="1212"/>
  <unicode hex="20A3"/>
  <outline>
    <contour>
      <point x="86" y="0" type="curve"/>
      <point x="544" y="0" type="line"/>
      <point x="574" y="140"/>
      <point x="602" y="274"/>
      <point x="638" y="444" type="curve"/>
      <point x="724" y="850" type="line"/>
      <point x="762" y="1032"/>
      <point x="790" y="1164"/>
      <point x="820" y="1304" type="curve"/>
      <point x="836" y="1380" type="line"/>
      <point x="378" y="1380" type="line"/>
      <point x="350" y="1246"/>
      <point x="320" y="1106"/>
      <point x="282" y="924" type="curve"/>
      <point x="180" y="444" type="line"/>
      <point x="144" y="272"/>
      <point x="116" y="144"/>
    </contour>
    <contour>
      <point x="666" y="996" type="line"/>
      <point x="870" y="996" type="line"/>
      <point x="1028" y="996"/>
      <point x="1146" y="996"/>
      <point x="1252" y="996" type="curve"/>
      <point x="1332" y="1380" type="line"/>
      <point x="746" y="1380" type="line"/>
    </contour>
    <contour>
      <point x="538" y="544" type="line"/>
      <point x="770" y="544" type="line"/>
      <point x="916" y="544"/>
      <point x="1024" y="544"/>
      <point x="1132" y="544" type="curve"/>
      <point x="1198" y="852" type="line"/>
      <point x="1096" y="852"/>
      <point x="990" y="852"/>
      <point x="836" y="852" type="curve"/>
      <point x="604" y="852" type="line"/>
    </contour>
    <contour>
      <point x="-20" y="170" type="line"/>
      <point x="130" y="170"/>
      <point x="282" y="170"/>
      <point x="396" y="170" type="curve"/>
      <point x="484" y="170" type="line"/>
      <point x="598" y="170"/>
      <point x="750" y="170"/>
      <point x="900" y="170" type="curve"/>
      <point x="954" y="430" type="line"/>
      <point x="804" y="430"/>
      <point x="652" y="430"/>
      <point x="538" y="430" type="curve"/>
      <point x="450" y="430" type="line"/>
      <point x="336" y="430"/>
      <point x="184" y="430"/>
      <point x="34" y="430" type="curve"/>
    </contour>
  </outline>
</glyph>
<glyph name="euro" format="2">
  <advance width="1412"/>
  <unicode hex="20AC"/>
  <outline>
    <contour>
      <point x="866" y="-30" type="curve" smooth="yes"/>
      <point x="988" y="-30"/>
      <point x="1154" y="-14"/>
      <point x="1236" y="24" type="curve"/>
      <point x="1306" y="436" type="line"/>
      <point x="1192" y="376"/>
      <point x="1080" y="348"/>
      <point x="962" y="348" type="curve"/>
      <point x="742" y="348"/>
      <point x="694" y="530"/>
      <point x="730" y="716" type="curve" smooth="yes"/>
      <point x="774" y="948"/>
      <point x="898" y="1020"/>
      <point x="1046" y="1020" type="curve"/>
      <point x="1174" y="1020"/>
      <point x="1262" y="998"/>
      <point x="1396" y="928" type="curve"/>
      <point x="1514" y="1334" type="line"/>
      <point x="1388" y="1380"/>
      <point x="1206" y="1412"/>
      <point x="1048" y="1412" type="curve" smooth="yes"/>
      <point x="578" y="1412"/>
      <point x="340" y="1194"/>
      <point x="256" y="774" type="curve" smooth="yes"/>
      <point x="168" y="334"/>
      <point x="374" y="-30"/>
    </contour>
    <contour>
      <point x="44" y="462" type="line"/>
      <point x="194" y="462"/>
      <point x="346" y="462"/>
      <point x="460" y="462" type="curve"/>
      <point x="688" y="462" type="line"/>
      <point x="802" y="462"/>
      <point x="954" y="462"/>
      <point x="1104" y="462" type="curve"/>
      <point x="1142" y="642" type="line"/>
      <point x="992" y="642"/>
      <point x="840" y="642"/>
      <point x="726" y="642" type="curve"/>
      <point x="498" y="642" type="line"/>
      <point x="384" y="642"/>
      <point x="232" y="642"/>
      <point x="82" y="642" type="curve"/>
    </contour>
    <contour>
      <point x="98" y="720" type="line"/>
      <point x="248" y="720"/>
      <point x="400" y="720"/>
      <point x="514" y="720" type="curve"/>
      <point x="802" y="720" type="line"/>
      <point x="916" y="720"/>
      <point x="1068" y="720"/>
      <point x="1218" y="720" type="curve"/>
      <point x="1256" y="900" type="line"/>
      <point x="1106" y="900"/>
      <point x="954" y="900"/>
      <point x="840" y="900" type="curve"/>
      <point x="552" y="900" type="line"/>
      <point x="438" y="900"/>
      <point x="286" y="900"/>
      <point x="136" y="900" type="curve"/>
    </contour>
  </outline>
</glyph>
<glyph name="kip" format="2">
  <advance width="1566"/>
  <unicode hex="20AD"/>
  <outline>
    <contour>
      <point x="880" y="0" type="curve"/>
      <point x="1410" y="0" type="line"/>
      <point x="1358" y="138"/>
      <point x="1272" y="368"/>
      <point x="1214" y="522" type="curve"/>
      <point x="1082" y="874" type="line"/>
      <point x="1118" y="668" type="line"/>
      <point x="1340" y="944" type="line"/>
      <point x="1450" y="1082"/>
      <point x="1568" y="1228"/>
      <point x="1690" y="1380" type="curve"/>
      <point x="1140" y="1380" type="line"/>
      <point x="1062" y="1258"/>
      <point x="1004" y="1168"/>
      <point x="940" y="1068" type="curve"/>
      <point x="804" y="856" type="line"/>
      <point x="712" y="856" type="line"/>
      <point x="652" y="576" type="line"/>
      <point x="750" y="576" type="line"/>
      <point x="808" y="320" type="line"/>
      <point x="830" y="222"/>
      <point x="852" y="126"/>
    </contour>
    <contour>
      <point x="126" y="0" type="curve"/>
      <point x="594" y="0" type="line"/>
      <point x="624" y="142"/>
      <point x="650" y="266"/>
      <point x="686" y="436" type="curve"/>
      <point x="790" y="926" type="line"/>
      <point x="828" y="1106"/>
      <point x="856" y="1238"/>
      <point x="886" y="1380" type="curve"/>
      <point x="418" y="1380" type="line"/>
      <point x="388" y="1238"/>
      <point x="360" y="1106"/>
      <point x="322" y="926" type="curve"/>
      <point x="218" y="436" type="line"/>
      <point x="182" y="266"/>
      <point x="156" y="142"/>
    </contour>
    <contour>
      <point x="64" y="566" type="line"/>
      <point x="214" y="566"/>
      <point x="366" y="566"/>
      <point x="480" y="566" type="curve"/>
      <point x="1108" y="566" type="line"/>
      <point x="1222" y="566"/>
      <point x="1374" y="566"/>
      <point x="1524" y="566" type="curve"/>
      <point x="1588" y="866" type="line"/>
      <point x="1438" y="866"/>
      <point x="1286" y="866"/>
      <point x="1172" y="866" type="curve"/>
      <point x="544" y="866" type="line"/>
      <point x="430" y="866"/>
      <point x="278" y="866"/>
      <point x="128" y="866" type="curve"/>
    </contour>
  </outline>
</glyph>
<glyph name="literSign" format="2">
  <advance width="1166"/>
  <unicode hex="2113"/>
  <outline>
    <contour>
      <point x="746" y="-32" type="curve" smooth="yes"/>
      <point x="848" y="-32"/>
      <point x="920" y="-20"/>
      <point x="982" y="12" type="curve"/>
      <point x="1044" y="388" type="line"/>
      <point x="978" y="346"/>
      <point x="884" y="324"/>
      <point x="814" y="324" type="curve"/>
      <point x="666" y="324"/>
      <point x="588" y="388"/>
      <point x="634" y="610" type="curve" smooth="yes"/>
      <point x="696" y="910" type="line" smooth="yes"/>
      <point x="734" y="1090"/>
      <point x="786" y="1130"/>
      <point x="834" y="1130" type="curve"/>
      <point x="882" y="1130"/>
      <point x="934" y="1080"/>
      <point x="910" y="966" type="curve" smooth="yes"/>
      <point x="878" y="814"/>
      <point x="744" y="644"/>
      <point x="492" y="644" type="curve" smooth="yes"/>
      <point x="404" y="644"/>
      <point x="216" y="666"/>
      <point x="92" y="710" type="curve"/>
      <point x="30" y="486" type="line"/>
      <point x="118" y="456"/>
      <point x="282" y="426"/>
      <point x="486" y="426" type="curve" smooth="yes"/>
      <point x="976" y="426"/>
      <point x="1148" y="680"/>
      <point x="1200" y="928" type="curve" smooth="yes"/>
      <point x="1264" y="1234"/>
      <point x="1072" y="1412"/>
      <point x="822" y="1412" type="curve" smooth="yes"/>
      <point x="482" y="1412"/>
      <point x="346" y="1210"/>
      <point x="278" y="894" type="curve" smooth="yes"/>
      <point x="222" y="634" type="line" smooth="yes"/>
      <point x="128" y="200"/>
      <point x="376" y="-32"/>
    </contour>
  </outline>
</glyph>
<glyph name="trademark" format="2">
  <advance width="1794"/>
  <unicode hex="2122"/>
  <outline>
    <contour>
      <point x="756" y="620" type="curve"/>
      <point x="1042" y="620" type="line"/>
      <point x="1062" y="680"/>
      <point x="1084" y="748"/>
      <point x="1100" y="796" type="curve"/>
      <point x="1138" y="910" type="line"/>
      <point x="1158" y="910" type="line"/>
      <point x="1168" y="794" type="line"/>
      <point x="1172" y="738"/>
      <point x="1178" y="670"/>
      <point x="1182" y="620" type="curve"/>
      <point x="1388" y="620" type="line"/>
      <point x="1410" y="678"/>
      <point x="1434" y="744"/>
      <point x="1452" y="792" type="curve"/>
      <point x="1496" y="910" type="line"/>
      <point x="1516" y="910" type="line"/>
      <point x="1508" y="802" type="line"/>
      <point x="1504" y="750"/>
      <point x="1498" y="674"/>
      <point x="1494" y="620" type="curve"/>
      <point x="1790" y="620" type="line"/>
      <point x="1796" y="700"/>
      <point x="1804" y="800"/>
      <point x="1810" y="878" type="curve"/>
      <point x="1830" y="1136" type="line"/>
      <point x="1838" y="1238"/>
      <point x="1844" y="1318"/>
      <point x="1852" y="1418" type="curve"/>
      <point x="1540" y="1418" type="line"/>
      <point x="1516" y="1370"/>
      <point x="1488" y="1314"/>
      <point x="1464" y="1266" type="curve"/>
      <point x="1394" y="1126" type="line"/>
      <point x="1374" y="1126" type="line"/>
      <point x="1356" y="1272" type="line"/>
      <point x="1350" y="1320"/>
      <point x="1344" y="1370"/>
      <point x="1338" y="1418" type="curve"/>
      <point x="1024" y="1418" type="line"/>
      <point x="992" y="1322"/>
      <point x="966" y="1246"/>
      <point x="934" y="1150" type="curve"/>
      <point x="846" y="888" type="line"/>
      <point x="814" y="792"/>
      <point x="788" y="716"/>
    </contour>
    <contour>
      <point x="246" y="620" type="curve"/>
      <point x="558" y="620" type="line"/>
      <point x="574" y="696"/>
      <point x="590" y="772"/>
      <point x="612" y="876" type="curve"/>
      <point x="660" y="1104" type="line"/>
      <point x="682" y="1208"/>
      <point x="698" y="1282"/>
      <point x="716" y="1368" type="curve"/>
      <point x="726" y="1418" type="line"/>
      <point x="414" y="1418" type="line"/>
      <point x="404" y="1368" type="line"/>
      <point x="386" y="1282"/>
      <point x="370" y="1208"/>
      <point x="348" y="1104" type="curve"/>
      <point x="300" y="876" type="line"/>
      <point x="278" y="772"/>
      <point x="262" y="694"/>
    </contour>
    <contour>
      <point x="168" y="1150" type="line"/>
      <point x="220" y="1150"/>
      <point x="274" y="1150"/>
      <point x="350" y="1150" type="curve"/>
      <point x="410" y="1150" type="line"/>
      <point x="466" y="1418" type="line"/>
      <point x="224" y="1418" type="line"/>
    </contour>
    <contour>
      <point x="618" y="1150" type="line"/>
      <point x="678" y="1150" type="line"/>
      <point x="754" y="1150"/>
      <point x="808" y="1150"/>
      <point x="860" y="1150" type="curve"/>
      <point x="916" y="1418" type="line"/>
      <point x="674" y="1418" type="line"/>
    </contour>
  </outline>
</glyph>
<glyph name="estimated" format="2">
  <advance width="1626"/>
  <unicode hex="212E"/>
  <outline>
    <contour>
      <point x="852" y="-18" type="curve" smooth="yes"/>
      <point x="1194" y="-18"/>
      <point x="1440" y="84"/>
      <point x="1574" y="378" type="curve"/>
      <point x="1266" y="378" type="line"/>
      <point x="1200" y="130"/>
      <point x="1060" y="42"/>
      <point x="852" y="42" type="curve" smooth="yes"/>
      <point x="426" y="42"/>
      <point x="346" y="296"/>
      <point x="346" y="686" type="curve" smooth="yes"/>
      <point x="346" y="1074"/>
      <point x="430" y="1332"/>
      <point x="848" y="1332" type="curve" smooth="yes"/>
      <point x="1270" y="1332"/>
      <point x="1324" y="1098"/>
      <point x="1350" y="684" type="curve"/>
      <point x="1612" y="668" type="line"/>
      <point x="1590" y="1138"/>
      <point x="1298" y="1392"/>
      <point x="848" y="1392" type="curve" smooth="yes"/>
      <point x="402" y="1392"/>
      <point x="86" y="1112"/>
      <point x="86" y="686" type="curve" smooth="yes"/>
      <point x="86" y="254"/>
      <point x="402" y="-18"/>
    </contour>
    <contour>
      <point x="506" y="90" type="curve"/>
      <point x="506" y="1294" type="line"/>
      <point x="168" y="1128"/>
      <point x="112" y="840"/>
      <point x="112" y="692" type="curve" smooth="yes"/>
      <point x="112" y="544"/>
      <point x="144" y="264"/>
    </contour>
    <contour>
      <point x="134" y="668" type="line"/>
      <point x="1612" y="668" type="line"/>
      <point x="1586" y="726" type="line"/>
      <point x="134" y="726" type="line"/>
    </contour>
    <contour>
      <point x="1208" y="692" type="line"/>
      <point x="1582" y="692" type="line"/>
      <point x="1566" y="840"/>
      <point x="1526" y="1136"/>
      <point x="1208" y="1296" type="curve"/>
    </contour>
  </outline>
</glyph>
<glyph name="emptyset" format="2">
  <advance width="1282"/>
  <unicode hex="2205"/>
  <outline>
    <contour>
      <point x="226" y="-56" type="line"/>
      <point x="338" y="72"/>
      <point x="442" y="192"/>
      <point x="564" y="332" type="curve"/>
      <point x="904" y="724" type="line"/>
      <point x="1028" y="868"/>
      <point x="1128" y="982"/>
      <point x="1244" y="1116" type="curve"/>
      <point x="1086" y="1244" type="line"/>
      <point x="972" y="1112"/>
      <point x="870" y="996"/>
      <point x="746" y="852" type="curve"/>
      <point x="414" y="470" type="line"/>
      <point x="292" y="330"/>
      <point x="198" y="222"/>
      <point x="76" y="82" type="curve"/>
    </contour>
    <contour>
      <point x="622" y="44" type="curve" smooth="yes"/>
      <point x="948" y="44"/>
      <point x="1164" y="182"/>
      <point x="1232" y="508" type="curve" smooth="yes"/>
      <point x="1302" y="840"/>
      <point x="1070" y="1144"/>
      <point x="696" y="1144" type="curve" smooth="yes"/>
      <point x="370" y="1144"/>
      <point x="158" y="1006"/>
      <point x="88" y="680" type="curve" smooth="yes"/>
      <point x="16" y="348"/>
      <point x="248" y="44"/>
    </contour>
    <contour>
      <point x="646" y="348" type="curve"/>
      <point x="484" y="348"/>
      <point x="388" y="478"/>
      <point x="424" y="634" type="curve" smooth="yes"/>
      <point x="450" y="750"/>
      <point x="526" y="842"/>
      <point x="678" y="842" type="curve"/>
      <point x="840" y="842"/>
      <point x="926" y="696"/>
      <point x="900" y="560" type="curve" smooth="yes"/>
      <point x="872" y="418"/>
      <point x="788" y="348"/>
    </contour>
  </outline>
</glyph>
<glyph name="product" format="2">
  <advance width="1682"/>
  <unicode hex="220F"/>
  <outline>
    <contour>
      <point x="778" y="-384" type="curve"/>
      <point x="1268" y="-384" type="line"/>
      <point x="1308" y="-194"/>
      <point x="1346" y="-16"/>
      <point x="1390" y="190" type="curve"/>
      <point x="1508" y="746" type="line"/>
      <point x="1554" y="962"/>
      <point x="1592" y="1140"/>
      <point x="1632" y="1328" type="curve"/>
      <point x="1652" y="1426" type="line"/>
      <point x="1162" y="1426" type="line"/>
      <point x="1142" y="1328" type="line"/>
      <point x="1102" y="1140"/>
      <point x="1064" y="962"/>
      <point x="1018" y="746" type="curve"/>
      <point x="900" y="190" type="line"/>
      <point x="852" y="-36"/>
      <point x="818" y="-196"/>
    </contour>
    <contour>
      <point x="38" y="-384" type="curve"/>
      <point x="528" y="-384" type="line"/>
      <point x="568" y="-194"/>
      <point x="606" y="-16"/>
      <point x="650" y="190" type="curve"/>
      <point x="768" y="746" type="line"/>
      <point x="814" y="962"/>
      <point x="852" y="1140"/>
      <point x="892" y="1328" type="curve"/>
      <point x="912" y="1426" type="line"/>
      <point x="422" y="1426" type="line"/>
      <point x="402" y="1328" type="line"/>
      <point x="362" y="1140"/>
      <point x="324" y="962"/>
      <point x="278" y="746" type="curve"/>
      <point x="160" y="190" type="line"/>
      <point x="112" y="-36"/>
      <point x="78" y="-196"/>
    </contour>
    <contour>
      <point x="170" y="1022" type="line"/>
      <point x="266" y="1022"/>
      <point x="368" y="1022"/>
      <point x="508" y="1022" type="curve"/>
      <point x="1394" y="1022" type="line"/>
      <point x="1534" y="1022"/>
      <point x="1636" y="1022"/>
      <point x="1732" y="1022" type="curve"/>
      <point x="1818" y="1426" type="line"/>
      <point x="256" y="1426" type="line"/>
    </contour>
  </outline>
</glyph>
<glyph name="minus" format="2">
  <advance width="1180"/>
  <unicode hex="2212"/>
  <outline>
    <contour>
      <point x="64" y="428" type="line"/>
      <point x="214" y="428"/>
      <point x="366" y="428"/>
      <point x="480" y="428" type="curve"/>
      <point x="668" y="428" type="line"/>
      <point x="782" y="428"/>
      <point x="934" y="428"/>
      <point x="1084" y="428" type="curve"/>
      <point x="1166" y="808" type="line"/>
      <point x="1016" y="808"/>
      <point x="864" y="808"/>
      <point x="750" y="808" type="curve"/>
      <point x="562" y="808" type="line"/>
      <point x="448" y="808"/>
      <point x="296" y="808"/>
      <point x="146" y="808" type="curve"/>
    </contour>
  </outline>
</glyph>
<glyph name="integral" format="2">
  <advance width="872"/>
  <unicode hex="222B"/>
  <outline>
    <contour>
      <point x="158" y="-414" type="curve" smooth="yes"/>
      <point x="384" y="-414"/>
      <point x="570" y="-336"/>
      <point x="612" y="56" type="curve" smooth="yes"/>
      <point x="628" y="224"/>
      <point x="680" y="712"/>
      <point x="714" y="1040" type="curve" smooth="yes"/>
      <point x="722" y="1118"/>
      <point x="756" y="1140"/>
      <point x="800" y="1140" type="curve" smooth="yes"/>
      <point x="832" y="1140"/>
      <point x="870" y="1130"/>
      <point x="908" y="1110" type="curve"/>
      <point x="972" y="1460" type="line"/>
      <point x="932" y="1476"/>
      <point x="816" y="1498"/>
      <point x="722" y="1498" type="curve" smooth="yes"/>
      <point x="496" y="1498"/>
      <point x="310" y="1420"/>
      <point x="270" y="1028" type="curve" smooth="yes"/>
      <point x="252" y="860"/>
      <point x="200" y="372"/>
      <point x="166" y="44" type="curve" smooth="yes"/>
      <point x="158" y="-34"/>
      <point x="126" y="-56"/>
      <point x="82" y="-56" type="curve" smooth="yes"/>
      <point x="50" y="-56"/>
      <point x="10" y="-46"/>
      <point x="-28" y="-26" type="curve"/>
      <point x="-92" y="-376" type="line"/>
      <point x="-54" y="-392"/>
      <point x="62" y="-414"/>
    </contour>
  </outline>
</glyph>
<glyph name="approxequal" format="2">
  <advance width="1180"/>
  <unicode hex="2248"/>
  <outline>
    <contour>
      <point x="864" y="622" type="curve" smooth="yes"/>
      <point x="1036" y="622"/>
      <point x="1142" y="792"/>
      <point x="1200" y="1064" type="curve"/>
      <point x="950" y="1064" type="line"/>
      <point x="930" y="1028"/>
      <point x="912" y="998"/>
      <point x="866" y="998" type="curve"/>
      <point x="760" y="998"/>
      <point x="668" y="1108"/>
      <point x="486" y="1108" type="curve" smooth="yes"/>
      <point x="302" y="1108"/>
      <point x="192" y="936"/>
      <point x="134" y="666" type="curve"/>
      <point x="384" y="666" type="line"/>
      <point x="404" y="702"/>
      <point x="428" y="732"/>
      <point x="478" y="732" type="curve"/>
      <point x="574" y="732"/>
      <point x="676" y="622"/>
    </contour>
    <contour>
      <point x="754" y="104" type="curve" smooth="yes"/>
      <point x="926" y="104"/>
      <point x="1032" y="274"/>
      <point x="1090" y="546" type="curve"/>
      <point x="840" y="546" type="line"/>
      <point x="820" y="510"/>
      <point x="802" y="480"/>
      <point x="756" y="480" type="curve"/>
      <point x="650" y="480"/>
      <point x="558" y="590"/>
      <point x="376" y="590" type="curve" smooth="yes"/>
      <point x="192" y="590"/>
      <point x="82" y="418"/>
      <point x="24" y="148" type="curve"/>
      <point x="274" y="148" type="line"/>
      <point x="294" y="184"/>
      <point x="318" y="214"/>
      <point x="368" y="214" type="curve"/>
      <point x="464" y="214"/>
      <point x="566" y="104"/>
    </contour>
  </outline>
</glyph>
<glyph name="lessequal" format="2">
  <advance width="1180"/>
  <unicode hex="2264"/>
  <outline>
    <contour>
      <point x="1084" y="426" type="curve"/>
      <point x="1166" y="806" type="line"/>
      <point x="1080" y="836"/>
      <point x="988" y="868"/>
      <point x="902" y="898" type="curve"/>
      <point x="764" y="946" type="line"/>
      <point x="770" y="978" type="line"/>
      <point x="926" y="1022" type="line"/>
      <point x="1028" y="1052"/>
      <point x="1132" y="1082"/>
      <point x="1230" y="1110" type="curve"/>
      <point x="1318" y="1530" type="line"/>
      <point x="1160" y="1478"/>
      <point x="1004" y="1426"/>
      <point x="870" y="1382" type="curve"/>
      <point x="670" y="1316" type="line"/>
      <point x="536" y="1272"/>
      <point x="380" y="1220"/>
      <point x="222" y="1168" type="curve"/>
      <point x="140" y="788" type="line"/>
      <point x="276" y="736"/>
      <point x="410" y="684"/>
      <point x="526" y="640" type="curve"/>
      <point x="698" y="574" type="line"/>
      <point x="812" y="530"/>
      <point x="948" y="478"/>
    </contour>
    <contour>
      <point x="-26" y="0" type="line"/>
      <point x="124" y="0"/>
      <point x="266" y="0"/>
      <point x="390" y="0" type="curve"/>
      <point x="578" y="0" type="line"/>
      <point x="702" y="0"/>
      <point x="844" y="0"/>
      <point x="994" y="0" type="curve"/>
      <point x="1076" y="380" type="line"/>
      <point x="926" y="380"/>
      <point x="784" y="380"/>
      <point x="660" y="380" type="curve"/>
      <point x="472" y="380" type="line"/>
      <point x="348" y="380"/>
      <point x="206" y="380"/>
      <point x="56" y="380" type="curve"/>
    </contour>
  </outline>
</glyph>
<glyph name="greaterequal" format="2">
  <advance width="1180"/>
  <unicode hex="2265"/>
  <outline>
    <contour>
      <point x="-26" y="0" type="line"/>
      <point x="124" y="0"/>
      <point x="266" y="0"/>
      <point x="390" y="0" type="curve"/>
      <point x="578" y="0" type="line"/>
      <point x="702" y="0"/>
      <point x="844" y="0"/>
      <point x="994" y="0" type="curve"/>
      <point x="1076" y="380" type="line"/>
      <point x="926" y="380"/>
      <point x="784" y="380"/>
      <point x="660" y="380" type="curve"/>
      <point x="472" y="380" type="line"/>
      <point x="348" y="380"/>
      <point x="206" y="380"/>
      <point x="56" y="380" type="curve"/>
    </contour>
    <contour>
      <point x="68" y="426" type="line"/>
      <point x="226" y="478"/>
      <point x="382" y="530"/>
      <point x="516" y="574" type="curve"/>
      <point x="716" y="640" type="line"/>
      <point x="850" y="684"/>
      <point x="1006" y="736"/>
      <point x="1164" y="788" type="curve"/>
      <point x="1246" y="1168" type="line"/>
      <point x="1110" y="1220"/>
      <point x="976" y="1272"/>
      <point x="860" y="1316" type="curve"/>
      <point x="688" y="1382" type="line"/>
      <point x="574" y="1426"/>
      <point x="438" y="1478"/>
      <point x="302" y="1530" type="curve"/>
      <point x="220" y="1150" type="line"/>
      <point x="306" y="1120"/>
      <point x="398" y="1088"/>
      <point x="484" y="1058" type="curve"/>
      <point x="622" y="1010" type="line"/>
      <point x="616" y="978" type="line"/>
      <point x="460" y="934" type="line"/>
      <point x="358" y="904"/>
      <point x="254" y="874"/>
      <point x="156" y="846" type="curve"/>
    </contour>
  </outline>
</glyph>
<glyph name=".notdef" format="2">
  <advance width="1210"/>
  <outline>
    <contour>
      <point x="-148" y="-384" type="line"/>
      <point x="982" y="-384" type="line"/>
      <point x="1412" y="1636" type="line"/>
      <point x="282" y="1636" type="line"/>
    </contour>
    <contour>
      <point x="46" y="-224" type="line"/>
      <point x="408" y="1476" type="line"/>
      <point x="1218" y="1476" type="line"/>
      <point x="856" y="-224" type="line"/>
    </contour>
    <contour>
      <point x="608" y="460" type="curve" smooth="yes"/>
      <point x="688" y="460"/>
      <point x="748" y="478"/>
      <point x="794" y="494" type="curve"/>
      <point x="814" y="636" type="line"/>
      <point x="788" y="624"/>
      <point x="762" y="616"/>
      <point x="742" y="616" type="curve"/>
      <point x="728" y="616"/>
      <point x="710" y="620"/>
      <point x="716" y="640" type="curve"/>
      <point x="720" y="662"/>
      <point x="762" y="686"/>
      <point x="816" y="710" type="curve" smooth="yes"/>
      <point x="910" y="752"/>
      <point x="1012" y="804"/>
      <point x="1044" y="956" type="curve" smooth="yes"/>
      <point x="1086" y="1152"/>
      <point x="952" y="1262"/>
      <point x="724" y="1262" type="curve" smooth="yes"/>
      <point x="612" y="1262"/>
      <point x="500" y="1236"/>
      <point x="420" y="1204" type="curve"/>
      <point x="372" y="908" type="line"/>
      <point x="460" y="954"/>
      <point x="554" y="976"/>
      <point x="620" y="976" type="curve"/>
      <point x="682" y="976"/>
      <point x="700" y="956"/>
      <point x="694" y="926" type="curve"/>
      <point x="686" y="892"/>
      <point x="644" y="868"/>
      <point x="590" y="836" type="curve" smooth="yes"/>
      <point x="502" y="784"/>
      <point x="422" y="736"/>
      <point x="402" y="638" type="curve" smooth="yes"/>
      <point x="382" y="544"/>
      <point x="440" y="460"/>
    </contour>
    <contour>
      <point x="512" y="22" type="curve" smooth="yes"/>
      <point x="634" y="22"/>
      <point x="696" y="84"/>
      <point x="718" y="184" type="curve" smooth="yes"/>
      <point x="742" y="294"/>
      <point x="672" y="398"/>
      <point x="542" y="398" type="curve" smooth="yes"/>
      <point x="416" y="398"/>
      <point x="354" y="338"/>
      <point x="334" y="236" type="curve" smooth="yes"/>
      <point x="312" y="128"/>
      <point x="374" y="22"/>
    </contour>
  </outline>
</glyph>
<glyph name="_strokeshortcomb.Tbar" format="2">
  <advance width="1460"/>
  <anchor x="775" y="714" name="_center"/>
  <outline>
    <contour>
      <point x="298" y="542" type="line"/>
      <point x="436" y="542"/>
      <point x="568" y="542"/>
      <point x="686" y="542" type="curve"/>
      <point x="790" y="542" type="line"/>
      <point x="908" y="542"/>
      <point x="1040" y="542"/>
      <point x="1178" y="542" type="curve"/>
      <point x="1250" y="884" type="line"/>
      <point x="1112" y="884"/>
      <point x="980" y="884"/>
      <point x="862" y="884" type="curve"/>
      <point x="758" y="884" type="line"/>
      <point x="640" y="884"/>
      <point x="508" y="884"/>
      <point x="370" y="884" type="curve"/>
    </contour>
  </outline>
</glyph>
<glyph name="brevecomb_tildecomb.case" format="2">
  <anchor x="702" y="1004" name="_top"/>
  <outline>
    <contour>
      <point x="760" y="1076" type="curve" smooth="yes"/>
      <point x="1048" y="1076"/>
      <point x="1166" y="1196"/>
      <point x="1216" y="1444" type="curve"/>
      <point x="932" y="1444" type="line"/>
      <point x="928" y="1402"/>
      <point x="882" y="1336"/>
      <point x="780" y="1336" type="curve"/>
      <point x="678" y="1336"/>
      <point x="648" y="1394"/>
      <point x="660" y="1456" type="curve"/>
      <point x="370" y="1444" type="line"/>
      <point x="322" y="1206"/>
      <point x="476" y="1076"/>
    </contour>
    <contour>
      <point x="992" y="1500" type="curve" smooth="yes"/>
      <point x="1124" y="1500"/>
      <point x="1228" y="1624"/>
      <point x="1268" y="1844" type="curve"/>
      <point x="1070" y="1844" type="line"/>
      <point x="1062" y="1816"/>
      <point x="1032" y="1764"/>
      <point x="994" y="1764" type="curve"/>
      <point x="938" y="1764"/>
      <point x="868" y="1882"/>
      <point x="714" y="1882" type="curve" smooth="yes"/>
      <point x="574" y="1882"/>
      <point x="462" y="1758"/>
      <point x="422" y="1538" type="curve"/>
      <point x="620" y="1538" type="line"/>
      <point x="632" y="1566"/>
      <point x="664" y="1618"/>
      <point x="706" y="1618" type="curve"/>
      <point x="754" y="1618"/>
      <point x="834" y="1500"/>
    </contour>
  </outline>
</glyph>
<glyph name="circumflexcomb.narrow" format="2">
  <anchor x="706" y="1004" name="_top"/>
  <anchor x="812" y="1510" name="top"/>
  <outline>
    <contour>
      <point x="856" y="1106" type="curve"/>
      <point x="1122" y="1110" type="line"/>
      <point x="1080" y="1254"/>
      <point x="1036" y="1404"/>
      <point x="994" y="1548" type="curve"/>
      <point x="610" y="1548" type="line"/>
      <point x="694" y="1398"/>
      <point x="778" y="1246"/>
    </contour>
    <contour>
      <point x="334" y="1108" type="curve"/>
      <point x="614" y="1108" type="line"/>
      <point x="730" y="1248"/>
      <point x="854" y="1396"/>
      <point x="980" y="1548" type="curve"/>
      <point x="600" y="1548" type="line"/>
      <point x="512" y="1402"/>
      <point x="424" y="1258"/>
    </contour>
  </outline>
</glyph>
<glyph name="circumflexcomb_acutecomb.case" format="2">
  <anchor x="706" y="1004" name="_top"/>
  <outline>
    <contour>
      <point x="1074" y="1408" type="curve"/>
      <point x="1370" y="1410" type="line"/>
      <point x="1478" y="1532"/>
      <point x="1598" y="1662"/>
      <point x="1716" y="1794" type="curve"/>
      <point x="1316" y="1786" type="line"/>
      <point x="1236" y="1660"/>
      <point x="1154" y="1534"/>
    </contour>
    <contour>
      <point x="314" y="1108" type="curve"/>
      <point x="608" y="1108" type="line"/>
      <point x="726" y="1228"/>
      <point x="854" y="1356"/>
      <point x="984" y="1490" type="curve"/>
      <point x="586" y="1490" type="line"/>
      <point x="494" y="1360"/>
      <point x="406" y="1236"/>
    </contour>
    <contour>
      <point x="862" y="1106" type="curve"/>
      <point x="1142" y="1110" type="line"/>
      <point x="1094" y="1236"/>
      <point x="1048" y="1362"/>
      <point x="1000" y="1490" type="curve"/>
      <point x="596" y="1490" type="line"/>
      <point x="686" y="1356"/>
      <point x="780" y="1228"/>
    </contour>
  </outline>
</glyph>
<glyph name="circumflexcomb_gravecomb.case" format="2">
  <anchor x="706" y="1004" name="_top"/>
  <outline>
    <contour>
      <point x="1134" y="1408" type="curve"/>
      <point x="1394" y="1410" type="line"/>
      <point x="1356" y="1542"/>
      <point x="1318" y="1670"/>
      <point x="1280" y="1794" type="curve"/>
      <point x="912" y="1786" type="line"/>
      <point x="988" y="1654"/>
      <point x="1066" y="1528"/>
    </contour>
    <contour>
      <point x="314" y="1108" type="curve"/>
      <point x="608" y="1108" type="line"/>
      <point x="726" y="1228"/>
      <point x="854" y="1356"/>
      <point x="984" y="1490" type="curve"/>
      <point x="586" y="1490" type="line"/>
      <point x="494" y="1360"/>
      <point x="406" y="1236"/>
    </contour>
    <contour>
      <point x="862" y="1106" type="curve"/>
      <point x="1142" y="1110" type="line"/>
      <point x="1094" y="1236"/>
      <point x="1048" y="1362"/>
      <point x="1000" y="1490" type="curve"/>
      <point x="596" y="1490" type="line"/>
      <point x="686" y="1356"/>
      <point x="780" y="1228"/>
    </contour>
  </outline>
</glyph>
<glyph name="guarani.BRACKET.140" format="2">
  <advance width="1386"/>
  <outline>
    <contour>
      <point x="762" y="-28" type="curve" smooth="yes"/>
      <point x="918" y="-28"/>
      <point x="1100" y="0"/>
      <point x="1192" y="34" type="curve"/>
      <point x="1220" y="442" type="line"/>
      <point x="1072" y="368"/>
      <point x="962" y="338"/>
      <point x="800" y="338" type="curve"/>
      <point x="604" y="338"/>
      <point x="538" y="532"/>
      <point x="578" y="724" type="curve" smooth="yes"/>
      <point x="628" y="958"/>
      <point x="778" y="1020"/>
      <point x="904" y="1020" type="curve"/>
      <point x="996" y="1020"/>
      <point x="1144" y="992"/>
      <point x="1316" y="884" type="curve"/>
      <point x="1442" y="1306" type="line"/>
      <point x="1308" y="1364"/>
      <point x="1108" y="1412"/>
      <point x="894" y="1412" type="curve" smooth="yes"/>
      <point x="464" y="1412"/>
      <point x="198" y="1210"/>
      <point x="106" y="780" type="curve" smooth="yes"/>
      <point x="14" y="352"/>
      <point x="214" y="-28"/>
    </contour>
    <contour>
      <point x="752" y="24" type="curve"/>
      <point x="1192" y="34" type="line"/>
      <point x="1222" y="178"/>
      <point x="1246" y="292"/>
      <point x="1268" y="398" type="curve"/>
      <point x="1296" y="530"/>
      <point x="1314" y="618"/>
      <point x="1338" y="732" type="curve"/>
      <point x="900" y="732" type="line"/>
      <point x="876" y="616"/>
      <point x="858" y="532"/>
      <point x="830" y="398" type="curve"/>
      <point x="808" y="290"/>
      <point x="782" y="166"/>
    </contour>
    <contour>
      <point x="448" y="-274" type="curve"/>
      <point x="768" y="-274" type="line"/>
      <point x="802" y="-116"/>
      <point x="838" y="56"/>
      <point x="866" y="186" type="curve"/>
      <point x="546" y="186" type="line"/>
      <point x="518" y="54"/>
      <point x="482" y="-114"/>
    </contour>
    <contour>
      <point x="764" y="1208" type="curve"/>
      <point x="1084" y="1208" type="line"/>
      <point x="1108" y="1328"/>
      <point x="1140" y="1470"/>
      <point x="1168" y="1606" type="curve"/>
      <point x="848" y="1606" type="line"/>
      <point x="820" y="1470"/>
      <point x="788" y="1328"/>
    </contour>
  </outline>
</glyph>
<glyph name="one.dnom" format="2">
  <advance width="714"/>
  <outline>
    <contour>
      <point x="88" y="486" type="line"/>
      <point x="232" y="536"/>
      <point x="358" y="580"/>
      <point x="472" y="620" type="curve"/>
      <point x="548" y="932" type="line"/>
      <point x="386" y="872"/>
      <point x="234" y="814"/>
      <point x="68" y="752" type="curve"/>
    </contour>
    <contour>
      <point x="164" y="0" type="curve"/>
      <point x="512" y="0" type="line"/>
      <point x="532" y="94"/>
      <point x="548" y="172"/>
      <point x="572" y="286" type="curve"/>
      <point x="636" y="592" type="line"/>
      <point x="658" y="696"/>
      <point x="682" y="810"/>
      <point x="706" y="924" type="curve"/>
      <point x="548" y="932" type="line"/>
      <point x="330" y="788" type="line"/>
      <point x="310" y="692"/>
      <point x="292" y="608"/>
      <point x="274" y="522" type="curve"/>
      <point x="226" y="294" type="line"/>
      <point x="202" y="180"/>
      <point x="184" y="96"/>
    </contour>
  </outline>
</glyph>
<glyph name="seven.dnom" format="2">
  <advance width="864"/>
  <outline>
    <contour>
      <point x="-16" y="0" type="curve"/>
      <point x="382" y="0" type="line"/>
      <point x="444" y="92"/>
      <point x="506" y="186"/>
      <point x="568" y="278" type="curve"/>
      <point x="678" y="442" type="line"/>
      <point x="740" y="534"/>
      <point x="802" y="628"/>
      <point x="864" y="720" type="curve"/>
      <point x="912" y="940" type="line"/>
      <point x="132" y="940" type="line"/>
      <point x="70" y="648" type="line"/>
      <point x="174" y="648"/>
      <point x="276" y="648"/>
      <point x="380" y="648" type="curve"/>
      <point x="554" y="648" type="line"/>
      <point x="478" y="720" type="line"/>
      <point x="438" y="662"/>
      <point x="400" y="606"/>
      <point x="360" y="548" type="curve"/>
      <point x="194" y="306" type="line"/>
      <point x="126" y="206"/>
      <point x="58" y="108"/>
    </contour>
  </outline>
</glyph>
<glyph name="six.dnom" format="2">
  <advance width="944"/>
  <outline>
    <contour>
      <point x="426" y="-30" type="curve" smooth="yes"/>
      <point x="692" y="-30"/>
      <point x="816" y="106"/>
      <point x="848" y="254" type="curve" smooth="yes"/>
      <point x="892" y="454"/>
      <point x="764" y="576"/>
      <point x="582" y="576" type="curve" smooth="yes"/>
      <point x="524" y="576"/>
      <point x="462" y="564"/>
      <point x="408" y="530" type="curve"/>
      <point x="378" y="530" type="line"/>
      <point x="310" y="480"/>
      <point x="288" y="398"/>
      <point x="344" y="360" type="curve"/>
      <point x="370" y="374"/>
      <point x="408" y="388"/>
      <point x="454" y="388" type="curve"/>
      <point x="506" y="388"/>
      <point x="532" y="350"/>
      <point x="522" y="308" type="curve" smooth="yes"/>
      <point x="512" y="268"/>
      <point x="476" y="246"/>
      <point x="436" y="246" type="curve"/>
      <point x="378" y="246"/>
      <point x="332" y="300"/>
      <point x="370" y="466" type="curve" smooth="yes"/>
      <point x="408" y="628"/>
      <point x="454" y="674"/>
      <point x="586" y="674" type="curve"/>
      <point x="664" y="674"/>
      <point x="758" y="658"/>
      <point x="836" y="614" type="curve"/>
      <point x="916" y="898" type="line"/>
      <point x="844" y="928"/>
      <point x="718" y="954"/>
      <point x="578" y="954" type="curve" smooth="yes"/>
      <point x="350" y="954"/>
      <point x="126" y="884"/>
      <point x="48" y="508" type="curve" smooth="yes"/>
      <point x="-22" y="170"/>
      <point x="120" y="-30"/>
    </contour>
  </outline>
</glyph>
<glyph name="won.BRACKET.140" format="2">
  <advance width="2224"/>
  <outline>
    <contour>
      <point x="336" y="0" type="curve"/>
      <point x="866" y="0" type="line"/>
      <point x="906" y="112"/>
      <point x="954" y="248"/>
      <point x="994" y="360" type="curve"/>
      <point x="1114" y="698" type="line"/>
      <point x="1144" y="698" type="line"/>
      <point x="1126" y="354" type="line"/>
      <point x="1120" y="240"/>
      <point x="1114" y="114"/>
      <point x="1108" y="0" type="curve"/>
      <point x="1678" y="0" type="line"/>
      <point x="1736" y="130"/>
      <point x="1808" y="292"/>
      <point x="1872" y="436" type="curve"/>
      <point x="2066" y="872" type="line"/>
      <point x="2124" y="1002"/>
      <point x="2216" y="1210"/>
      <point x="2292" y="1380" type="curve"/>
      <point x="1752" y="1380" type="line"/>
      <point x="1708" y="1238"/>
      <point x="1658" y="1076"/>
      <point x="1622" y="958" type="curve"/>
      <point x="1500" y="564" type="line"/>
      <point x="1470" y="564" type="line"/>
      <point x="1498" y="944" type="line"/>
      <point x="1508" y="1074"/>
      <point x="1520" y="1250"/>
      <point x="1530" y="1380" type="curve"/>
      <point x="1046" y="1380" type="line"/>
      <point x="1000" y="1242"/>
      <point x="950" y="1092"/>
      <point x="904" y="954" type="curve"/>
      <point x="774" y="564" type="line"/>
      <point x="742" y="564" type="line"/>
      <point x="782" y="944" type="line"/>
      <point x="796" y="1078"/>
      <point x="814" y="1246"/>
      <point x="828" y="1380" type="curve"/>
      <point x="304" y="1380" type="line"/>
      <point x="308" y="1210"/>
      <point x="312" y="1006"/>
      <point x="316" y="856" type="curve"/>
      <point x="326" y="434" type="line"/>
      <point x="328" y="306"/>
      <point x="332" y="150"/>
    </contour>
    <contour>
      <point x="54" y="566" type="line"/>
      <point x="204" y="566"/>
      <point x="346" y="566"/>
      <point x="470" y="566" type="curve"/>
      <point x="534" y="866" type="line"/>
      <point x="410" y="866"/>
      <point x="268" y="866"/>
      <point x="118" y="866" type="curve"/>
    </contour>
    <contour>
      <point x="1782" y="566" type="line"/>
      <point x="1906" y="566"/>
      <point x="2048" y="566"/>
      <point x="2198" y="566" type="curve"/>
      <point x="2262" y="866" type="line"/>
      <point x="2112" y="866"/>
      <point x="1970" y="866"/>
      <point x="1846" y="866" type="curve"/>
    </contour>
  </outline>
</glyph>
